<svg width="81" height="61" viewBox="0 0 81 61" fill="none" xmlns="http://www.w3.org/2000/svg">
<rect width="81" height="25" rx="3" fill="#EFF2F6"/>
<path d="M49.1281 19.2112V5.78946C49.1281 4.7349 48.2653 3.87207 47.2107 3.87207H33.789C32.7344 3.87207 31.8716 4.7349 31.8716 5.78946V19.2112C31.8716 20.2658 32.7344 21.1286 33.789 21.1286H47.2107C48.2653 21.1286 49.1281 20.2658 49.1281 19.2112ZM37.1444 13.9384L39.5412 16.8241L42.8966 12.5003L47.2107 18.2525H33.789L37.1444 13.9384Z" fill="#9CB0C9"/>
<rect y="28" width="81" height="3" rx="1" fill="#EFF2F6"/>
<rect y="33" width="81" height="3" rx="1" fill="#EFF2F6"/>
<rect y="38" width="81" height="3" rx="1" fill="#EFF2F6"/>
<rect y="43" width="81" height="3" rx="1" fill="#EFF2F6"/>
<rect y="48" width="81" height="3" rx="1" fill="#EFF2F6"/>
<rect y="53" width="81" height="3" rx="1" fill="#EFF2F6"/>
<rect y="58" width="81" height="3" rx="1" fill="#EFF2F6"/>
</svg>
