<svg width="103" height="61" viewBox="0 0 103 61" fill="none" xmlns="http://www.w3.org/2000/svg">
<rect width="103" height="25" rx="3" fill="#EFF2F6"/>
<path d="M60.1281 19.2112V5.78946C60.1281 4.7349 59.2653 3.87207 58.2107 3.87207H44.789C43.7344 3.87207 42.8716 4.7349 42.8716 5.78946V19.2112C42.8716 20.2658 43.7344 21.1286 44.789 21.1286H58.2107C59.2653 21.1286 60.1281 20.2658 60.1281 19.2112ZM48.1444 13.9384L50.5412 16.8241L53.8966 12.5003L58.2107 18.2525H44.789L48.1444 13.9384Z" fill="#9CB0C9"/>
<rect y="28" width="103" height="3" rx="1" fill="#EFF2F6"/>
<rect y="33" width="103" height="3" rx="1" fill="#EFF2F6"/>
<rect y="38" width="103" height="3" rx="1" fill="#EFF2F6"/>
<rect y="43" width="103" height="3" rx="1" fill="#EFF2F6"/>
<rect y="48" width="103" height="3" rx="1" fill="#EFF2F6"/>
<rect y="53" width="103" height="3" rx="1" fill="#EFF2F6"/>
<rect y="58" width="103" height="3" rx="1" fill="#EFF2F6"/>
</svg>
