<svg width="103" height="61" viewBox="0 0 103 61" fill="none" xmlns="http://www.w3.org/2000/svg">
<rect width="34" height="25" rx="3" fill="#EFF2F6"/>
<path d="M25.6281 19.2112V5.78946C25.6281 4.7349 24.7653 3.87207 23.7107 3.87207H10.289C9.23441 3.87207 8.37158 4.7349 8.37158 5.78946V19.2112C8.37158 20.2658 9.23441 21.1286 10.289 21.1286H23.7107C24.7653 21.1286 25.6281 20.2658 25.6281 19.2112ZM13.6444 13.9384L16.0412 16.8241L19.3966 12.5003L23.7107 18.2525H10.289L13.6444 13.9384Z" fill="#9CB0C9"/>
<rect x="37" width="66" height="3" rx="1" fill="#EFF2F6"/>
<rect x="37" y="5" width="66" height="3" rx="1" fill="#EFF2F6"/>
<rect x="37" y="10" width="66" height="3" rx="1" fill="#EFF2F6"/>
<rect x="37" y="15" width="66" height="3" rx="1" fill="#EFF2F6"/>
<rect x="37" y="20" width="66" height="3" rx="1" fill="#EFF2F6"/>
<rect x="37" y="25" width="66" height="3" rx="1" fill="#EFF2F6"/>
<rect x="37" y="30" width="66" height="3" rx="1" fill="#EFF2F6"/>
<rect x="37" y="35" width="66" height="3" rx="1" fill="#EFF2F6"/>
<rect x="37" y="40" width="66" height="3" rx="1" fill="#EFF2F6"/>
<rect x="37" y="45" width="66" height="3" rx="1" fill="#EFF2F6"/>
<rect x="37" y="50" width="66" height="3" rx="1" fill="#EFF2F6"/>
<rect x="37" y="55" width="66" height="3" rx="1" fill="#EFF2F6"/>
<rect x="37" y="60" width="66" height="3" rx="1" fill="#EFF2F6"/>
</svg>
