<svg width="65" height="131" viewBox="0 0 65 131" fill="none" xmlns="http://www.w3.org/2000/svg">
<rect width="65" height="52" rx="4" fill="#EFF2F6"/>
<path d="M41.1282 32.7109V19.2891C41.1282 18.2345 40.2654 17.3717 39.2109 17.3717H25.7891C24.7345 17.3717 23.8717 18.2345 23.8717 19.2891V32.7109C23.8717 33.7654 24.7345 34.6282 25.7891 34.6282H39.2109C40.2654 34.6282 41.1282 33.7654 41.1282 32.7109ZM29.1445 27.438L31.5413 30.3237L34.8967 26L39.2109 31.7522H25.7891L29.1445 27.438Z" fill="#9CB0C9"/>
<rect y="58" width="65" height="3" rx="1" fill="#EFF2F6"/>
<rect y="63" width="65" height="3" rx="1" fill="#EFF2F6"/>
<rect y="68" width="65" height="3" rx="1" fill="#EFF2F6"/>
<rect y="73" width="65" height="3" rx="1" fill="#EFF2F6"/>
<rect y="78" width="65" height="3" rx="1" fill="#EFF2F6"/>
<rect y="83" width="65" height="3" rx="1" fill="#EFF2F6"/>
<rect y="88" width="65" height="3" rx="1" fill="#EFF2F6"/>
<rect y="93" width="65" height="3" rx="1" fill="#EFF2F6"/>
<rect y="98" width="65" height="3" rx="1" fill="#EFF2F6"/>
<rect y="103" width="65" height="3" rx="1" fill="#EFF2F6"/>
<rect y="108" width="65" height="3" rx="1" fill="#EFF2F6"/>
<rect y="113" width="65" height="3" rx="1" fill="#EFF2F6"/>
<rect y="118" width="65" height="3" rx="1" fill="#EFF2F6"/>
<rect y="123" width="65" height="3" rx="1" fill="#EFF2F6"/>
<rect y="128" width="65" height="3" rx="1" fill="#EFF2F6"/>
</svg>
