<svg width="103" height="62" viewBox="0 0 103 62" fill="none" xmlns="http://www.w3.org/2000/svg">
<g clip-path="url(#clip0_2778_323)">
<path d="M100 0H3C1.34315 0 0 1.34315 0 3V22C0 23.6569 1.34315 25 3 25H100C101.657 25 103 23.6569 103 22V3C103 1.34315 101.657 0 100 0Z" fill="#EFF2F6"/>
<path d="M102 29H1C0.447715 29 0 29.4477 0 30V31C0 31.5523 0.447715 32 1 32H102C102.552 32 103 31.5523 103 31V30C103 29.4477 102.552 29 102 29Z" fill="#EFF2F6"/>
<path d="M102 34H1C0.447715 34 0 34.4477 0 35V36C0 36.5523 0.447715 37 1 37H102C102.552 37 103 36.5523 103 36V35C103 34.4477 102.552 34 102 34Z" fill="#EFF2F6"/>
<path d="M102 39H1C0.447715 39 0 39.4477 0 40V41C0 41.5523 0.447715 42 1 42H102C102.552 42 103 41.5523 103 41V40C103 39.4477 102.552 39 102 39Z" fill="#EFF2F6"/>
<path d="M102 44H1C0.447715 44 0 44.4477 0 45V46C0 46.5523 0.447715 47 1 47H102C102.552 47 103 46.5523 103 46V45C103 44.4477 102.552 44 102 44Z" fill="#EFF2F6"/>
<path d="M102 49H1C0.447715 49 0 49.4477 0 50V51C0 51.5523 0.447715 52 1 52H102C102.552 52 103 51.5523 103 51V50C103 49.4477 102.552 49 102 49Z" fill="#EFF2F6"/>
<path d="M102 54H1C0.447715 54 0 54.4477 0 55V56C0 56.5523 0.447715 57 1 57H102C102.552 57 103 56.5523 103 56V55C103 54.4477 102.552 54 102 54Z" fill="#EFF2F6"/>
<path d="M102 59H1C0.447715 59 0 59.4477 0 60V61C0 61.5523 0.447715 62 1 62H102C102.552 62 103 61.5523 103 61V60C103 59.4477 102.552 59 102 59Z" fill="#EFF2F6"/>
<circle cx="51" cy="12" r="5.33333" stroke="#33363F" stroke-width="0.666667"/>
<ellipse cx="51" cy="12" rx="2" ry="5.33333" stroke="#33363F" stroke-width="0.666667"/>
<path d="M45.6667 12H56.3333" stroke="#33363F" stroke-width="0.666667" stroke-linecap="round"/>
</g>
<defs>
<clipPath id="clip0_2778_323">
<rect width="103" height="62" fill="white"/>
</clipPath>
</defs>
</svg>
