<svg width="103" height="131" viewBox="0 0 103 131" fill="none" xmlns="http://www.w3.org/2000/svg">
<rect width="103" height="52" rx="4" fill="#EFF2F6"/>
<path d="M60.1282 32.7109V19.2891C60.1282 18.2345 59.2654 17.3717 58.2109 17.3717H44.7891C43.7345 17.3717 42.8717 18.2345 42.8717 19.2891V32.7109C42.8717 33.7654 43.7345 34.6282 44.7891 34.6282H58.2109C59.2654 34.6282 60.1282 33.7654 60.1282 32.7109ZM48.1445 27.438L50.5413 30.3237L53.8967 26L58.2109 31.7522H44.7891L48.1445 27.438Z" fill="#9CB0C9"/>
<rect y="58" width="103" height="3" rx="1" fill="#9CB0C9"/>
<rect y="63" width="103" height="3" rx="1" fill="#9CB0C9"/>
<rect y="68" width="103" height="3" rx="1" fill="#9CB0C9"/>
<rect y="73" width="103" height="3" rx="1" fill="#9CB0C9"/>
<rect y="78" width="103" height="3" rx="1" fill="#9CB0C9"/>
<rect y="83" width="103" height="3" rx="1" fill="#9CB0C9"/>
<rect y="88" width="103" height="3" rx="1" fill="#9CB0C9"/>
<rect y="93" width="103" height="3" rx="1" fill="#9CB0C9"/>
<rect y="98" width="103" height="3" rx="1" fill="#9CB0C9"/>
<rect y="103" width="103" height="3" rx="1" fill="#9CB0C9"/>
<rect y="108" width="103" height="3" rx="1" fill="#9CB0C9"/>
<rect y="113" width="103" height="3" rx="1" fill="#9CB0C9"/>
<rect y="118" width="103" height="3" rx="1" fill="#9CB0C9"/>
<rect y="123" width="103" height="3" rx="1" fill="#9CB0C9"/>
<rect y="128" width="103" height="3" rx="1" fill="#9CB0C9"/>
</svg>
