<svg width="103" height="54" viewBox="0 0 103 54" fill="none" xmlns="http://www.w3.org/2000/svg">
<rect width="31" height="16" rx="1" fill="#EFF2F6"/>
<rect y="18" width="31" height="1" rx="0.5" fill="#EFF2F6"/>
<rect y="20" width="31" height="1" rx="0.5" fill="#EFF2F6"/>
<rect y="22" width="31" height="1" rx="0.5" fill="#EFF2F6"/>
<rect y="24" width="14" height="1" rx="0.5" fill="#EFF2F6"/>
<rect x="36" width="31" height="16" rx="1" fill="#EFF2F6"/>
<rect x="36" y="18" width="31" height="1" rx="0.5" fill="#EFF2F6"/>
<rect x="36" y="20" width="31" height="1" rx="0.5" fill="#EFF2F6"/>
<rect x="36" y="22" width="31" height="1" rx="0.5" fill="#EFF2F6"/>
<rect x="36" y="24" width="14" height="1" rx="0.5" fill="#EFF2F6"/>
<rect x="72" width="31" height="16" rx="1" fill="#EFF2F6"/>
<rect x="72" y="18" width="31" height="1" rx="0.5" fill="#EFF2F6"/>
<rect x="72" y="20" width="31" height="1" rx="0.5" fill="#EFF2F6"/>
<rect x="72" y="22" width="31" height="1" rx="0.5" fill="#EFF2F6"/>
<rect x="72" y="24" width="14" height="1" rx="0.5" fill="#EFF2F6"/>
<rect y="29" width="31" height="16" rx="1" fill="#EFF2F6"/>
<rect y="47" width="31" height="1" rx="0.5" fill="#EFF2F6"/>
<rect y="49" width="31" height="1" rx="0.5" fill="#EFF2F6"/>
<rect y="51" width="31" height="1" rx="0.5" fill="#EFF2F6"/>
<rect y="53" width="14" height="1" rx="0.5" fill="#EFF2F6"/>
<rect x="36" y="29" width="31" height="16" rx="1" fill="#EFF2F6"/>
<rect x="36" y="47" width="31" height="1" rx="0.5" fill="#EFF2F6"/>
<rect x="36" y="49" width="31" height="1" rx="0.5" fill="#EFF2F6"/>
<rect x="36" y="51" width="31" height="1" rx="0.5" fill="#EFF2F6"/>
<rect x="36" y="53" width="14" height="1" rx="0.5" fill="#EFF2F6"/>
<rect x="72" y="29" width="31" height="16" rx="1" fill="#EFF2F6"/>
<rect x="72" y="47" width="31" height="1" rx="0.5" fill="#EFF2F6"/>
<rect x="72" y="49" width="31" height="1" rx="0.5" fill="#EFF2F6"/>
<rect x="72" y="51" width="31" height="1" rx="0.5" fill="#EFF2F6"/>
<rect x="72" y="53" width="14" height="1" rx="0.5" fill="#EFF2F6"/>
</svg>
