<svg width="88" height="54" viewBox="0 0 88 54" fill="none" xmlns="http://www.w3.org/2000/svg">
<rect width="26" height="16" rx="1" fill="#EFF2F6"/>
<rect y="18" width="26" height="1" rx="0.5" fill="#EFF2F6"/>
<rect y="20" width="26" height="1" rx="0.5" fill="#EFF2F6"/>
<rect y="22" width="26" height="1" rx="0.5" fill="#EFF2F6"/>
<rect y="24" width="14" height="1" rx="0.5" fill="#EFF2F6"/>
<rect x="31" width="26" height="16" rx="1" fill="#EFF2F6"/>
<rect x="31" y="18" width="26" height="1" rx="0.5" fill="#EFF2F6"/>
<rect x="31" y="20" width="26" height="1" rx="0.5" fill="#EFF2F6"/>
<rect x="31" y="22" width="26" height="1" rx="0.5" fill="#EFF2F6"/>
<rect x="31" y="24" width="14" height="1" rx="0.5" fill="#EFF2F6"/>
<rect x="62" width="26" height="16" rx="1" fill="#EFF2F6"/>
<rect x="62" y="18" width="26" height="1" rx="0.5" fill="#EFF2F6"/>
<rect x="62" y="20" width="26" height="1" rx="0.5" fill="#EFF2F6"/>
<rect x="62" y="22" width="26" height="1" rx="0.5" fill="#EFF2F6"/>
<rect x="62" y="24" width="14" height="1" rx="0.5" fill="#EFF2F6"/>
<rect y="29" width="26" height="16" rx="1" fill="#EFF2F6"/>
<rect y="47" width="26" height="1" rx="0.5" fill="#EFF2F6"/>
<rect y="49" width="26" height="1" rx="0.5" fill="#EFF2F6"/>
<rect y="51" width="26" height="1" rx="0.5" fill="#EFF2F6"/>
<rect y="53" width="14" height="1" rx="0.5" fill="#EFF2F6"/>
<rect x="31" y="29" width="26" height="16" rx="1" fill="#EFF2F6"/>
<rect x="31" y="47" width="26" height="1" rx="0.5" fill="#EFF2F6"/>
<rect x="31" y="49" width="26" height="1" rx="0.5" fill="#EFF2F6"/>
<rect x="31" y="51" width="26" height="1" rx="0.5" fill="#EFF2F6"/>
<rect x="31" y="53" width="14" height="1" rx="0.5" fill="#EFF2F6"/>
<rect x="62" y="29" width="26" height="16" rx="1" fill="#EFF2F6"/>
<rect x="62" y="47" width="26" height="1" rx="0.5" fill="#EFF2F6"/>
<rect x="62" y="49" width="26" height="1" rx="0.5" fill="#EFF2F6"/>
<rect x="62" y="51" width="26" height="1" rx="0.5" fill="#EFF2F6"/>
<rect x="62" y="53" width="14" height="1" rx="0.5" fill="#EFF2F6"/>
</svg>
