<svg width="8" height="8" viewBox="0 0 8 8" fill="none" xmlns="http://www.w3.org/2000/svg">
<path d="M0.912668 0.156588C0.70388 -0.052196 0.365375 -0.052196 0.156587 0.156588C-0.0521957 0.365378 -0.0521957 0.703885 0.156587 0.912674L3.24391 4.00001L0.156619 7.08734C-0.0521636 7.29612 -0.0521636 7.63465 0.156619 7.84342C0.365407 8.05219 0.703912 8.05219 0.912695 7.84342L3.99998 4.75608L7.0873 7.84342C7.29607 8.05219 7.6346 8.05219 7.84337 7.84342C8.05214 7.63465 8.05214 7.29612 7.84337 7.08734L4.75605 4.00001L7.84342 0.912674C8.05219 0.703885 8.05219 0.365378 7.84342 0.156588C7.63465 -0.052196 7.29612 -0.052196 7.08735 0.156588L3.99998 3.24393L0.912668 0.156588Z" fill="#024B86"/>
</svg>
