<svg width="80" height="61" viewBox="0 0 80 61" fill="none" xmlns="http://www.w3.org/2000/svg">
<path d="M0 4C0 1.79086 1.79086 0 4 0H22C24.2091 0 26 1.79086 26 4V62H0V4Z" fill="#EFF2F6"/>
<rect x="30" width="50" height="25" rx="3" fill="#EFF2F6"/>
<path d="M63.6284 19.2112V5.78946C63.6284 4.7349 62.7655 3.87207 61.711 3.87207H48.2892C47.2347 3.87207 46.3718 4.7349 46.3718 5.78946V19.2112C46.3718 20.2658 47.2347 21.1286 48.2892 21.1286H61.711C62.7655 21.1286 63.6284 20.2658 63.6284 19.2112ZM51.6447 13.9384L54.0414 16.8241L57.3968 12.5003L61.711 18.2525H48.2892L51.6447 13.9384Z" fill="#9CB0C9"/>
<rect x="30" y="29" width="50" height="3" rx="1" fill="#EFF2F6"/>
<rect x="30" y="34" width="50" height="3" rx="1" fill="#EFF2F6"/>
<rect x="30" y="39" width="50" height="3" rx="1" fill="#EFF2F6"/>
<rect x="30" y="44" width="50" height="3" rx="1" fill="#EFF2F6"/>
<rect x="30" y="49" width="50" height="3" rx="1" fill="#EFF2F6"/>
<rect x="30" y="54" width="50" height="3" rx="1" fill="#EFF2F6"/>
<rect x="30" y="59" width="50" height="3" rx="1" fill="#EFF2F6"/>
</svg>
