<svg width="103" height="56" viewBox="0 0 103 56" fill="none" xmlns="http://www.w3.org/2000/svg">
<rect width="18" height="8" rx="1" fill="#EFF2F6"/>
<rect x="20" y="0.5" width="13" height="1" rx="0.5" fill="#EFF2F6"/>
<rect x="20" y="2.5" width="83" height="1" rx="0.5" fill="#EFF2F6"/>
<rect x="20" y="4.5" width="83" height="1" rx="0.5" fill="#EFF2F6"/>
<rect x="20" y="6.5" width="83" height="1" rx="0.5" fill="#EFF2F6"/>
<rect y="12" width="18" height="8" rx="1" fill="#EFF2F6"/>
<rect x="20" y="12.5" width="13" height="1" rx="0.5" fill="#EFF2F6"/>
<rect x="20" y="14.5" width="83" height="1" rx="0.5" fill="#EFF2F6"/>
<rect x="20" y="16.5" width="83" height="1" rx="0.5" fill="#EFF2F6"/>
<rect x="20" y="18.5" width="83" height="1" rx="0.5" fill="#EFF2F6"/>
<rect y="24" width="18" height="8" rx="1" fill="#EFF2F6"/>
<rect x="20" y="24.5" width="13" height="1" rx="0.5" fill="#EFF2F6"/>
<rect x="20" y="26.5" width="83" height="1" rx="0.5" fill="#EFF2F6"/>
<rect x="20" y="28.5" width="83" height="1" rx="0.5" fill="#EFF2F6"/>
<rect x="20" y="30.5" width="83" height="1" rx="0.5" fill="#EFF2F6"/>
<rect y="36" width="18" height="8" rx="1" fill="#EFF2F6"/>
<rect x="20" y="36.5" width="13" height="1" rx="0.5" fill="#EFF2F6"/>
<rect x="20" y="38.5" width="83" height="1" rx="0.5" fill="#EFF2F6"/>
<rect x="20" y="40.5" width="83" height="1" rx="0.5" fill="#EFF2F6"/>
<rect x="20" y="42.5" width="83" height="1" rx="0.5" fill="#EFF2F6"/>
<rect y="48" width="18" height="8" rx="1" fill="#EFF2F6"/>
<rect x="20" y="48.5" width="13" height="1" rx="0.5" fill="#EFF2F6"/>
<rect x="20" y="50.5" width="83" height="1" rx="0.5" fill="#EFF2F6"/>
<rect x="20" y="52.5" width="83" height="1" rx="0.5" fill="#EFF2F6"/>
<rect x="20" y="54.5" width="83" height="1" rx="0.5" fill="#EFF2F6"/>
</svg>
