<svg width="80" height="61" viewBox="0 0 80 61" fill="none" xmlns="http://www.w3.org/2000/svg">
<rect width="80" height="25" rx="3" fill="#EFF2F6"/>
<path d="M48.6284 19.2112V5.78946C48.6284 4.7349 47.7655 3.87207 46.711 3.87207H33.2892C32.2347 3.87207 31.3718 4.7349 31.3718 5.78946V19.2112C31.3718 20.2658 32.2347 21.1286 33.2892 21.1286H46.711C47.7655 21.1286 48.6284 20.2658 48.6284 19.2112ZM36.6447 13.9384L39.0414 16.8241L42.3968 12.5003L46.711 18.2525H33.2892L36.6447 13.9384Z" fill="#9CB0C9"/>
<rect y="29" width="80" height="3" rx="1" fill="#EFF2F6"/>
<rect y="34" width="80" height="3" rx="1" fill="#EFF2F6"/>
<rect y="39" width="80" height="3" rx="1" fill="#EFF2F6"/>
<rect y="44" width="80" height="3" rx="1" fill="#EFF2F6"/>
<rect y="49" width="80" height="3" rx="1" fill="#EFF2F6"/>
<rect y="54" width="80" height="3" rx="1" fill="#EFF2F6"/>
<rect y="59" width="80" height="3" rx="1" fill="#EFF2F6"/>
</svg>
