<svg width="103" height="61" viewBox="0 0 103 61" fill="none" xmlns="http://www.w3.org/2000/svg">
<rect width="103" height="25" rx="3" fill="#EFF2F6"/>
<path d="M60.1284 19.2112V5.78946C60.1284 4.7349 59.2655 3.87207 58.211 3.87207H44.7892C43.7347 3.87207 42.8718 4.7349 42.8718 5.78946V19.2112C42.8718 20.2658 43.7347 21.1286 44.7892 21.1286H58.211C59.2655 21.1286 60.1284 20.2658 60.1284 19.2112ZM48.1447 13.9384L50.5414 16.8241L53.8968 12.5003L58.211 18.2525H44.7892L48.1447 13.9384Z" fill="#9CB0C9"/>
<rect y="29" width="103" height="3" rx="1" fill="#EFF2F6"/>
<rect y="34" width="103" height="3" rx="1" fill="#EFF2F6"/>
<rect y="39" width="103" height="3" rx="1" fill="#EFF2F6"/>
<rect y="44" width="103" height="3" rx="1" fill="#EFF2F6"/>
<rect y="49" width="103" height="3" rx="1" fill="#EFF2F6"/>
<rect y="54" width="103" height="3" rx="1" fill="#EFF2F6"/>
<rect y="59" width="103" height="3" rx="1" fill="#EFF2F6"/>
</svg>
