<svg width="121" height="155" viewBox="0 0 121 155" fill="none" xmlns="http://www.w3.org/2000/svg">
<rect x="0.5" y="0.5" width="120" height="154" rx="3.5" fill="white" stroke="#D2D2D2"/>
<rect x="8" y="13" width="68" height="52" rx="4" fill="#EFF2F6"/>
<path d="M50.6283 45.7109V32.2891C50.6283 31.2346 49.7654 30.3717 48.7109 30.3717H35.2891C34.2346 30.3717 33.3717 31.2346 33.3717 32.2891V45.7109C33.3717 46.7655 34.2346 47.6283 35.2891 47.6283H48.7109C49.7654 47.6283 50.6283 46.7655 50.6283 45.7109ZM38.6446 40.4381L41.0413 43.3237L44.3967 39L48.7109 44.7522H35.2891L38.6446 40.4381Z" fill="#9CB0C9"/>
<rect x="8" y="69" width="68" height="3" rx="1" fill="#EFF2F6"/>
<rect x="8" y="74" width="68" height="3" rx="1" fill="#EFF2F6"/>
<rect x="8" y="79" width="68" height="3" rx="1" fill="#EFF2F6"/>
<rect x="8" y="84" width="68" height="3" rx="1" fill="#EFF2F6"/>
<rect x="8" y="89" width="68" height="3" rx="1" fill="#EFF2F6"/>
<rect x="8" y="94" width="68" height="3" rx="1" fill="#EFF2F6"/>
<rect x="8" y="99" width="68" height="3" rx="1" fill="#EFF2F6"/>
<rect x="8" y="104" width="68" height="3" rx="1" fill="#EFF2F6"/>
<rect x="8" y="109" width="68" height="3" rx="1" fill="#EFF2F6"/>
<rect x="8" y="114" width="68" height="3" rx="1" fill="#EFF2F6"/>
<rect x="8" y="119" width="68" height="3" rx="1" fill="#EFF2F6"/>
<rect x="8" y="124" width="68" height="3" rx="1" fill="#EFF2F6"/>
<rect x="8" y="129" width="68" height="3" rx="1" fill="#EFF2F6"/>
<rect x="8" y="134" width="68" height="3" rx="1" fill="#EFF2F6"/>
<rect x="8" y="139" width="68" height="3" rx="1" fill="#EFF2F6"/>
<rect x="83" y="13" width="29" height="131" rx="4" fill="#9CB0C9"/>
</svg>
