<svg width="80" height="61" viewBox="0 0 80 61" fill="none" xmlns="http://www.w3.org/2000/svg">
<rect width="50" height="25" rx="3" fill="#EFF2F6"/>
<path d="M33.6284 19.2112V5.78946C33.6284 4.7349 32.7655 3.87207 31.711 3.87207H18.2892C17.2347 3.87207 16.3718 4.7349 16.3718 5.78946V19.2112C16.3718 20.2658 17.2347 21.1286 18.2892 21.1286H31.711C32.7655 21.1286 33.6284 20.2658 33.6284 19.2112ZM21.6447 13.9384L24.0414 16.8241L27.3968 12.5003L31.711 18.2525H18.2892L21.6447 13.9384Z" fill="#9CB0C9"/>
<rect y="29" width="50" height="3" rx="1" fill="#EFF2F6"/>
<rect y="34" width="50" height="3" rx="1" fill="#EFF2F6"/>
<rect y="39" width="50" height="3" rx="1" fill="#EFF2F6"/>
<rect y="44" width="50" height="3" rx="1" fill="#EFF2F6"/>
<rect y="49" width="50" height="3" rx="1" fill="#EFF2F6"/>
<rect y="54" width="50" height="3" rx="1" fill="#EFF2F6"/>
<rect y="59" width="50" height="3" rx="1" fill="#EFF2F6"/>
<path d="M54 4C54 1.79086 55.7909 0 58 0H76C78.2091 0 80 1.79086 80 4V62H54V4Z" fill="#EFF2F6"/>
</svg>
