<svg width="36" height="36" viewBox="0 0 36 36" fill="none" xmlns="http://www.w3.org/2000/svg">
<rect x="0.5" y="0.5" width="35" height="35" rx="2.5" fill="white" stroke="#A5A5A5"/>
<mask id="path-2-outside-1_19_1010" maskUnits="userSpaceOnUse" x="9" y="10" width="17" height="17" fill="black">
<rect fill="white" x="9" y="10" width="17" height="17"/>
<path d="M19.5858 13.4142L12.3917 20.6083C12.1971 20.8029 12.0997 20.9003 12.0328 21.0186C11.9658 21.1368 11.9324 21.2704 11.8656 21.5374L11.2021 24.1915C11.1119 24.5526 11.0667 24.7331 11.1668 24.8332C11.2669 24.9333 11.4474 24.8881 11.8084 24.7979L11.8085 24.7979L14.4626 24.1344C14.7296 24.0676 14.8632 24.0342 14.9814 23.9672C15.0997 23.9003 15.1971 23.8029 15.3917 23.6083L22.5858 16.4142L22.5858 16.4142C23.2525 15.7475 23.5858 15.4142 23.5858 15C23.5858 14.5858 23.2525 14.2525 22.5858 13.5858L22.4142 13.4142C21.7475 12.7475 21.4142 12.4142 21 12.4142C20.5858 12.4142 20.2525 12.7475 19.5858 13.4142Z"/>
</mask>
<path d="M12.3917 20.6083L13.8059 22.0225L13.8059 22.0225L12.3917 20.6083ZM19.5858 13.4142L18.1716 12L18.1716 12L19.5858 13.4142ZM22.4142 13.4142L21 14.8284L21 14.8284L22.4142 13.4142ZM22.5858 13.5858L24 12.1716L24 12.1716L22.5858 13.5858ZM22.5858 16.4142L24 17.8284L22.5858 16.4142ZM15.3917 23.6083L13.9775 22.1941L13.9775 22.1941L15.3917 23.6083ZM11.8656 21.5374L13.8059 22.0225L13.8059 22.0225L11.8656 21.5374ZM11.2021 24.1915L9.26183 23.7065H9.26183L11.2021 24.1915ZM11.8085 24.7979L11.3234 22.8576L11.2362 22.8794L11.1514 22.9089L11.8085 24.7979ZM14.4626 24.1344L13.9775 22.1941L13.9775 22.1941L14.4626 24.1344ZM11.1668 24.8332L12.581 23.419L12.581 23.419L11.1668 24.8332ZM11.8084 24.7979L12.2935 26.7382L12.3806 26.7164L12.4655 26.6869L11.8084 24.7979ZM14.9814 23.9672L13.9961 22.2268L13.996 22.2268L14.9814 23.9672ZM22.5858 16.4142L24 17.8284L24 17.8284L22.5858 16.4142ZM12.0328 21.0186L10.2924 20.0332L10.2924 20.0332L12.0328 21.0186ZM13.8059 22.0225L21 14.8284L18.1716 12L10.9775 19.1941L13.8059 22.0225ZM21 14.8284L21.1716 15L24 12.1716L23.8284 12L21 14.8284ZM21.1716 15L13.9775 22.1941L16.8059 25.0225L24 17.8284L21.1716 15ZM9.92536 21.0524L9.26183 23.7065L13.1424 24.6766L13.8059 22.0225L9.92536 21.0524ZM12.2935 26.7382L14.9476 26.0746L13.9775 22.1941L11.3234 22.8576L12.2935 26.7382ZM9.26183 23.7065C9.233 23.8218 9.15055 24.1296 9.12259 24.4155C9.0922 24.7261 9.06509 25.5599 9.7526 26.2474L12.581 23.419C12.8467 23.6847 12.9991 24.0005 13.0664 24.2928C13.1251 24.5478 13.1097 24.7429 13.1036 24.8049C13.097 24.8724 13.0879 24.904 13.097 24.8631C13.1054 24.8253 13.1179 24.7747 13.1424 24.6766L9.26183 23.7065ZM11.1514 22.9089L11.1514 22.9089L12.4655 26.6869L12.4655 26.6869L11.1514 22.9089ZM11.3234 22.8576C11.2253 22.8821 11.1747 22.8946 11.1369 22.903C11.096 22.9121 11.1276 22.903 11.1951 22.8964C11.2571 22.8903 11.4522 22.8749 11.7072 22.9336C11.9995 23.0009 12.3154 23.1533 12.581 23.419L9.7526 26.2474C10.4401 26.9349 11.2739 26.9078 11.5845 26.8774C11.8704 26.8494 12.1782 26.767 12.2935 26.7382L11.3234 22.8576ZM13.9775 22.1941C13.9528 22.2188 13.9317 22.2399 13.9121 22.2593C13.8927 22.2787 13.8767 22.2945 13.8629 22.308C13.8492 22.3215 13.8391 22.3312 13.8317 22.3382C13.8281 22.3416 13.8255 22.3441 13.8236 22.3458C13.8218 22.3475 13.8209 22.3483 13.8209 22.3482C13.8209 22.3482 13.822 22.3473 13.8239 22.3456C13.8259 22.3439 13.8289 22.3413 13.8329 22.338C13.8409 22.3314 13.8529 22.3216 13.8687 22.3098C13.8845 22.2979 13.9036 22.2843 13.9256 22.2699C13.9478 22.2553 13.9713 22.2408 13.9961 22.2268L15.9668 25.7076C16.376 25.476 16.6864 25.1421 16.8059 25.0225L13.9775 22.1941ZM14.9476 26.0746C15.1117 26.0336 15.5577 25.9393 15.9669 25.7076L13.996 22.2268C14.0208 22.2128 14.0453 22.2001 14.0692 22.1886C14.0929 22.1772 14.1144 22.1678 14.1328 22.1603C14.151 22.1529 14.1655 22.1475 14.1753 22.1441C14.1802 22.1424 14.1839 22.1412 14.1864 22.1404C14.1889 22.1395 14.1902 22.1391 14.1903 22.1391C14.1903 22.1391 14.1892 22.1395 14.1868 22.1402C14.1843 22.1409 14.1808 22.1419 14.1761 22.1432C14.1663 22.1459 14.1528 22.1496 14.1341 22.1544C14.1155 22.1593 14.0937 22.1649 14.0671 22.1716C14.0403 22.1784 14.0114 22.1856 13.9775 22.1941L14.9476 26.0746ZM21.1716 15C21.3435 15.1719 21.4698 15.2984 21.5738 15.4078C21.6786 15.518 21.7263 15.5752 21.7457 15.6007C21.7644 15.6252 21.7226 15.5764 21.6774 15.4678C21.6254 15.3433 21.5858 15.181 21.5858 15H25.5858C25.5858 14.1798 25.2282 13.5707 24.9258 13.1744C24.6586 12.8242 24.2934 12.4649 24 12.1716L21.1716 15ZM24 17.8284L24 17.8284L21.1716 15L21.1716 15L24 17.8284ZM24 17.8284C24.2934 17.5351 24.6586 17.1758 24.9258 16.8256C25.2282 16.4292 25.5858 15.8202 25.5858 15H21.5858C21.5858 14.819 21.6254 14.6567 21.6774 14.5322C21.7226 14.4236 21.7644 14.3748 21.7457 14.3993C21.7263 14.4248 21.6786 14.482 21.5738 14.5922C21.4698 14.7016 21.3435 14.8281 21.1716 15L24 17.8284ZM21 14.8284C21.1719 14.6565 21.2984 14.5302 21.4078 14.4262C21.518 14.3214 21.5752 14.2737 21.6007 14.2543C21.6252 14.2356 21.5764 14.2774 21.4678 14.3226C21.3433 14.3746 21.181 14.4142 21 14.4142V10.4142C20.1798 10.4142 19.5707 10.7718 19.1744 11.0742C18.8242 11.3414 18.4649 11.7066 18.1716 12L21 14.8284ZM23.8284 12C23.5351 11.7066 23.1758 11.3414 22.8256 11.0742C22.4293 10.7718 21.8202 10.4142 21 10.4142V14.4142C20.819 14.4142 20.6567 14.3746 20.5322 14.3226C20.4236 14.2774 20.3748 14.2356 20.3993 14.2543C20.4248 14.2737 20.482 14.3214 20.5922 14.4262C20.7016 14.5302 20.8281 14.6565 21 14.8284L23.8284 12ZM10.9775 19.1941C10.8579 19.3136 10.524 19.624 10.2924 20.0332L13.7732 22.0039C13.7592 22.0287 13.7447 22.0522 13.7301 22.0744C13.7157 22.0964 13.7021 22.1155 13.6902 22.1313C13.6784 22.1471 13.6686 22.1591 13.662 22.1671C13.6587 22.1711 13.6561 22.1741 13.6544 22.1761C13.6527 22.178 13.6518 22.1791 13.6518 22.1791C13.6517 22.1791 13.6525 22.1782 13.6542 22.1764C13.6559 22.1745 13.6584 22.1719 13.6618 22.1683C13.6688 22.1609 13.6785 22.1508 13.692 22.1371C13.7055 22.1233 13.7213 22.1073 13.7407 22.0879C13.7601 22.0683 13.7812 22.0472 13.8059 22.0225L10.9775 19.1941ZM13.8059 22.0225C13.8144 21.9886 13.8216 21.9597 13.8284 21.9329C13.8351 21.9063 13.8407 21.8845 13.8456 21.8659C13.8504 21.8472 13.8541 21.8337 13.8568 21.8239C13.8581 21.8192 13.8591 21.8157 13.8598 21.8132C13.8605 21.8108 13.8609 21.8097 13.8609 21.8097C13.8609 21.8098 13.8605 21.8111 13.8596 21.8136C13.8588 21.8161 13.8576 21.8198 13.8559 21.8247C13.8525 21.8345 13.8471 21.849 13.8397 21.8672C13.8322 21.8856 13.8228 21.9071 13.8114 21.9308C13.7999 21.9547 13.7872 21.9792 13.7732 22.0039L10.2924 20.0332C10.0607 20.4423 9.96637 20.8883 9.92536 21.0524L13.8059 22.0225Z" fill="#A5A5A5" mask="url(#path-2-outside-1_19_1010)"/>
<path d="M18.5 13.5L21.5 11.5L24.5 14.5L22.5 17.5L18.5 13.5Z" fill="#A5A5A5"/>
</svg>
