<svg width="36" height="36" viewBox="0 0 36 36" fill="none" xmlns="http://www.w3.org/2000/svg">
<path d="M14.4478 8.02458C13.9258 10.3286 15.4378 14.2526 17.9938 14.2526C20.5318 14.2526 22.0438 10.3286 21.5218 8.02458C21.1258 6.26058 19.5778 5.09058 17.9938 5.09058C16.3918 5.09058 14.8618 6.26058 14.4478 8.02458ZM7.01376 9.64458C6.56376 11.5886 7.85976 14.9186 10.0198 14.9186C12.1798 14.9186 13.4758 11.5886 13.0258 9.64458C12.6838 8.15058 11.3698 7.14258 10.0198 7.14258C8.66976 7.14258 7.35576 8.15058 7.01376 9.64458ZM22.9618 9.64458C22.5118 11.5886 23.8078 14.9186 25.9498 14.9186C28.1098 14.9186 29.4058 11.5886 28.9558 9.64458C28.6138 8.15058 27.2998 7.14258 25.9498 7.14258C24.6178 7.14258 23.3038 8.15058 22.9618 9.64458ZM21.8998 30.2186L24.1498 22.4786C25.5538 17.9966 22.8718 15.2426 17.9938 15.2426C13.0978 15.2426 10.4158 17.9966 11.8018 22.4786L14.0698 30.2186C14.4838 31.5146 16.1938 32.3966 17.9938 32.3966C19.7578 32.3966 21.4858 31.5146 21.8998 30.2186ZM10.9198 16.4846C10.0378 17.6906 9.19176 19.7786 10.1638 22.9466L12.1798 29.7686C11.5678 30.1286 10.7938 30.3266 10.0198 30.3266C8.48976 30.3266 7.04976 29.5886 6.68976 28.4726L4.76376 21.9026C3.59376 18.1046 5.86176 15.7826 10.0198 15.7826C10.5058 15.7826 10.9918 15.8186 11.4418 15.8906C11.2618 16.0706 11.0818 16.2866 10.9198 16.4846ZM25.9498 15.7826C30.1078 15.7826 32.3938 18.1046 31.2058 21.9026L29.2798 28.4726C28.9198 29.5886 27.4798 30.3266 25.9498 30.3266C25.1758 30.3266 24.4018 30.1286 23.7898 29.7686L25.7878 22.9826C26.7778 19.7786 25.9318 17.6906 25.0318 16.4846C24.8878 16.2866 24.7078 16.0706 24.5278 15.8906C24.9778 15.8186 25.4458 15.7826 25.9498 15.7826Z" fill="#2271B1"/>
</svg>
