<svg width="36" height="36" viewBox="0 0 36 36" fill="none" xmlns="http://www.w3.org/2000/svg">
<path d="M22.8976 3.60248C23.1676 3.56648 23.3656 3.63848 23.6356 3.72848C24.6436 4.07048 25.1296 5.15049 24.8236 6.15849C24.5176 7.14849 23.0236 11.6305 23.0236 12.6025C23.0236 13.5565 24.3736 14.4025 25.4536 14.4025H30.8536C31.9336 14.4025 32.6536 15.1225 32.6536 16.2025C32.6536 17.2825 29.0536 28.8025 29.0536 28.8025C28.7476 29.5045 28.0636 30.6025 27.2536 30.6025H10.8016V14.4025H14.6536C15.3916 13.6645 20.5936 5.92448 21.0976 4.91648C21.4756 4.17848 22.1776 3.69248 22.8976 3.60248ZM3.60156 14.4025H7.20156V30.6025H3.60156V14.4025Z" fill="#2271B1"/>
</svg>
