<svg width="36" height="36" viewBox="0 0 36 36" fill="none" xmlns="http://www.w3.org/2000/svg">
<path d="M32.4016 18C32.4016 10.044 25.9576 3.59998 18.0016 3.59998C10.0456 3.59998 3.60156 10.044 3.60156 18C3.60156 25.956 10.0456 32.4 18.0016 32.4C25.9576 32.4 32.4016 25.956 32.4016 18ZM13.0156 6.42598L15.6976 13.14C14.5816 13.662 13.6636 14.58 13.1416 15.696L6.42756 13.014C7.70686 10.0608 10.0624 7.70527 13.0156 6.42598ZM29.5756 13.014L22.8616 15.696C22.3396 14.58 21.4216 13.662 20.3056 13.14L22.9876 6.42598C25.9396 7.70398 28.2976 10.062 29.5756 13.014ZM18.0016 21.6C16.0216 21.6 14.4016 19.98 14.4016 18C14.4016 16.02 16.0216 14.4 18.0016 14.4C19.9816 14.4 21.6016 16.02 21.6016 18C21.6016 19.98 19.9816 21.6 18.0016 21.6ZM6.42756 22.986L13.1416 20.304C13.6636 21.42 14.5816 22.338 15.6976 22.86L13.0156 29.574C10.0624 28.2947 7.70686 25.9392 6.42756 22.986ZM22.9876 29.574L20.3056 22.86C21.4216 22.338 22.3396 21.42 22.8616 20.304L29.5756 22.986C28.2963 25.9392 25.9408 28.2947 22.9876 29.574Z" fill="#2271B1"/>
</svg>
