<svg width="36" height="36" viewBox="0 0 36 36" fill="none" xmlns="http://www.w3.org/2000/svg">
<path d="M32.4016 25.2V7.20002C32.4016 6.21002 31.5916 5.40002 30.6016 5.40002H5.40156C4.41156 5.40002 3.60156 6.21002 3.60156 7.20002V25.2C3.60156 26.19 4.41156 27 5.40156 27H30.6016C31.5916 27 32.4016 26.19 32.4016 25.2ZM18.0016 10.8C22.1416 10.8 25.9216 12.852 28.8016 16.2C25.9216 19.548 22.1416 21.6 18.0016 21.6C13.8616 21.6 10.0816 19.548 7.20156 16.2C10.0816 12.852 13.8616 10.8 18.0016 10.8ZM21.6016 16.2C21.6016 14.22 19.9816 12.6 18.0016 12.6C16.0216 12.6 14.4016 14.22 14.4016 16.2C14.4016 18.18 16.0216 19.8 18.0016 19.8C19.9816 19.8 21.6016 18.18 21.6016 16.2ZM25.2016 30.6H30.6016V32.4H5.40156V30.6H10.8016V28.8H25.2016V30.6Z" fill="#2271B1"/>
</svg>
