<svg width="36" height="36" viewBox="0 0 36 36" fill="none" xmlns="http://www.w3.org/2000/svg">
<path d="M21.5992 3.59998L28.7992 10.8V32.4H7.19922V3.59998H21.5992ZM8.99922 5.39998V7.19998H19.7992V5.39998H8.99922ZM21.5992 10.8H26.9992L21.5992 5.39998V10.8ZM8.99922 8.99998V10.8H19.7992V8.99998H8.99922ZM26.9992 14.4V12.6H8.99922V14.4H26.9992ZM8.99922 16.2V18H16.1992V16.2H8.99922ZM26.9992 21.6V16.2H17.9992V21.6H26.9992ZM8.99922 19.8V21.6H16.1992V19.8H8.99922ZM26.9992 25.2V23.4H8.99922V25.2H26.9992ZM21.5992 28.8V27H8.99922V28.8H21.5992Z" fill="#2271B1"/>
</svg>
