<svg width="36" height="36" viewBox="0 0 36 36" fill="none" xmlns="http://www.w3.org/2000/svg">
<path d="M31.8599 9.54147C31.4999 8.28147 30.5999 7.38147 29.3399 7.02147C25.5599 6.66147 21.7799 6.30147 17.9999 6.48147C14.2199 6.48147 10.4399 6.66147 6.6599 7.02147C5.5799 7.38147 4.4999 8.46147 4.1399 9.54147C3.42212 15.1586 3.42212 20.8443 4.1399 26.4615C4.4999 27.7215 5.3999 28.6215 6.6599 28.9815C10.4399 29.3415 14.2199 29.7015 17.9999 29.5215C21.7799 29.5215 25.5599 29.3415 29.3399 28.9815C30.5999 28.6215 31.4999 27.7215 31.8599 26.4615C32.5777 20.8443 32.5777 15.1586 31.8599 9.54147ZM14.3999 23.4015V12.6015L23.7599 18.0015L14.3999 23.4015Z" fill="#2271B1"/>
</svg>
