<svg width="6" height="6" viewBox="0 0 6 6" fill="none" xmlns="http://www.w3.org/2000/svg">
<path d="M0.994875 0.500513C0.994875 0.367768 1.04761 0.240461 1.14147 0.146597C1.23534 0.0527325 1.36264 0 1.49539 0H5.49949C5.63223 0 5.75954 0.0527325 5.8534 0.146597C5.94727 0.240461 6 0.367768 6 0.500513V4.50461C6 4.63736 5.94727 4.76466 5.8534 4.85853C5.75954 4.95239 5.63223 5.00513 5.49949 5.00513C5.36674 5.00513 5.23944 4.95239 5.14557 4.85853C5.05171 4.76466 4.99898 4.63736 4.99898 4.50461V1.70875L0.848225 5.8595C0.753827 5.95067 0.627396 6.00112 0.496163 5.99998C0.364931 5.99884 0.239396 5.9462 0.146597 5.8534C0.0537978 5.7606 0.0011593 5.63507 1.89206e-05 5.50384C-0.00112146 5.3726 0.0493276 5.24617 0.1405 5.15177L4.29125 1.00103H1.49539C1.36264 1.00103 1.23534 0.948293 1.14147 0.854428C1.04761 0.760564 0.994875 0.633257 0.994875 0.500513Z" fill="#2271B1"/>
</svg>
