<svg width="24" height="24" viewBox="0 0 24 24" fill="none" xmlns="http://www.w3.org/2000/svg">
<path d="M2.70312 1.19922H21.3031C22.1311 1.19922 22.8031 1.87122 22.8031 2.69922V21.2992C22.8031 22.1272 22.1311 22.7992 21.3031 22.7992H2.70312C1.87513 22.7992 1.20312 22.1272 1.20312 21.2992V2.69922C1.20312 1.87122 1.87513 1.19922 2.70312 1.19922ZM20.4031 20.3992V3.59922H3.60313V20.3992H20.4031ZM12.0031 7.19922C12.0031 5.87922 10.9231 4.79922 9.60313 4.79922C8.28313 4.79922 7.20312 5.87922 7.20312 7.19922C7.20312 8.51922 8.28313 9.59922 9.60313 9.59922C10.9231 9.59922 12.0031 8.51922 12.0031 7.19922ZM15.6031 13.1992C15.6031 13.1992 15.6031 5.99922 19.2031 5.99922V17.9992C19.2031 18.6592 18.6631 19.1992 18.0031 19.1992H6.00313C5.34313 19.1992 4.80313 18.6592 4.80313 17.9992V9.59922C7.20312 9.59922 8.40313 14.3992 8.40313 14.3992C8.40313 14.3992 9.60313 10.7992 12.0031 10.7992C14.4031 10.7992 15.6031 13.1992 15.6031 13.1992Z" fill="#2271B1"/>
</svg>
