<svg width="24" height="24" viewBox="0 0 24 24" fill="none" xmlns="http://www.w3.org/2000/svg">
<path d="M22.7984 19.1984V3.59844C22.7984 2.93844 22.2584 2.39844 21.5984 2.39844H3.59844C2.93844 2.39844 2.39844 2.93844 2.39844 3.59844V19.1984C2.39844 19.8584 2.93844 20.3984 3.59844 20.3984H21.5984C22.2584 20.3984 22.7984 19.8584 22.7984 19.1984ZM4.79844 4.79844H20.3984V9.59844H4.79844V4.79844ZM5.99844 5.99844V8.39844H9.59844V5.99844H5.99844ZM10.7984 5.99844V8.39844H14.3984V5.99844H10.7984ZM15.5984 5.99844V8.39844H19.1984V5.99844H15.5984ZM5.39844 11.9984C5.73444 11.9984 5.99844 12.2624 5.99844 12.5984C5.99844 12.9344 5.73444 13.1984 5.39844 13.1984C5.06244 13.1984 4.79844 12.9344 4.79844 12.5984C4.79844 12.2624 5.06244 11.9984 5.39844 11.9984ZM7.19844 11.9984H11.9984V13.1984H7.19844V11.9984ZM14.3984 11.9984H20.3984V17.9984H14.3984V11.9984ZM5.39844 14.3984C5.73444 14.3984 5.99844 14.6624 5.99844 14.9984C5.99844 15.3344 5.73444 15.5984 5.39844 15.5984C5.06244 15.5984 4.79844 15.3344 4.79844 14.9984C4.79844 14.6624 5.06244 14.3984 5.39844 14.3984ZM7.19844 14.3984H11.9984V15.5984H7.19844V14.3984ZM15.5984 14.3984V16.7984H19.1984V14.3984H15.5984ZM5.39844 16.7984C5.73444 16.7984 5.99844 17.0624 5.99844 17.3984C5.99844 17.7344 5.73444 17.9984 5.39844 17.9984C5.06244 17.9984 4.79844 17.7344 4.79844 17.3984C4.79844 17.0624 5.06244 16.7984 5.39844 16.7984ZM7.19844 16.7984H11.9984V17.9984H7.19844V16.7984Z" fill="#2271B1"/>
</svg>
