<svg width="79" height="80" viewBox="0 0 79 80" fill="none" xmlns="http://www.w3.org/2000/svg">
<path d="M78.2969 9.59118V9.59916C78.2969 9.59854 78.297 9.60103 78.2972 9.61054L78.2975 9.62249L78.2991 9.69084C78.3004 9.74885 78.3019 9.8308 78.3027 9.93535C78.3045 10.1444 78.3038 10.4435 78.294 10.8223C78.2746 11.5797 78.2191 12.6559 78.0752 13.9685C77.7873 16.593 77.1454 20.1664 75.7282 24.0282C72.9001 31.7348 66.9817 40.5928 54.6443 45.3343C52.6767 49.0016 49.8566 52.1329 46.4262 54.4598C47.2073 56.5516 48.3836 58.4713 49.8904 60.1121C51.4349 61.7941 53.2956 63.1491 55.3639 64.0986H62.838H62.8384C63.0315 64.0988 63.2226 64.1375 63.4008 64.2122C63.5789 64.2869 63.7406 64.3962 63.8766 64.5337C64.0126 64.6712 64.1202 64.8342 64.1935 65.0134C64.2669 65.1926 64.3044 65.3845 64.3042 65.5782M78.2969 9.59118L64.0042 65.5778M78.2969 9.59118L78.2965 9.58322M78.2969 9.59118L78.2965 9.58322M64.3042 65.5782L64.0042 65.5778M64.3042 65.5782V65.5778H64.0042M64.3042 65.5782V77.4688V77.4692C64.3036 77.8596 64.1496 78.2343 63.8751 78.5111C63.6006 78.788 63.2278 78.9442 62.8384 78.9448H62.838H16.1724H16.1704C15.7827 78.9421 15.4123 78.7852 15.1395 78.509C14.8668 78.2328 14.7137 77.8598 14.7127 77.4712L14.7127 77.4704L14.7127 65.5782M64.0042 65.5778V77.4688C64.0037 77.7805 63.8807 78.0794 63.6621 78.2999C63.4435 78.5203 63.1471 78.6443 62.838 78.6448H16.1724C15.8647 78.6426 15.5702 78.5181 15.353 78.2982C15.1358 78.0782 15.0135 77.7808 15.0127 77.4704V65.5778M14.7127 65.5782L15.0127 65.5778M14.7127 65.5782C14.7124 65.3845 14.75 65.1926 14.8233 65.0134C14.8966 64.8342 15.0043 64.6712 15.1403 64.5337L15.3536 64.7446L15.1403 64.5337C15.2763 64.3962 15.4379 64.2869 15.6161 64.2122C15.7942 64.1375 15.9853 64.0988 16.1784 64.0986H16.1789H23.6525C25.7172 63.1434 27.575 61.7864 29.1189 60.1051C30.625 58.465 31.8033 56.5481 32.59 54.4595C29.1596 52.1343 26.3383 49.0056 24.3679 45.3408C12.0232 40.601 6.10074 31.7413 3.27157 24.0326C0.454753 16.3576 0.700286 9.81674 0.708738 9.5916L0.708866 9.58815L0.709062 9.58283L0.709109 9.58284C0.729632 9.20621 0.892351 8.85128 1.16462 8.59107C1.43697 8.33079 1.79827 8.1851 2.17449 8.18463L2.17486 8.18463H14.5597M14.7127 65.5782V65.5778H15.0127M15.0127 65.5778L14.5597 8.18463M14.5597 8.18463C14.2501 4.84746 14.1575 2.61444 14.1434 2.23405C14.1354 2.03611 14.1672 1.83853 14.2368 1.65313C14.3065 1.46737 14.4129 1.29758 14.5496 1.15406C14.6862 1.01052 14.8505 0.896204 15.0324 0.81812C15.2143 0.740052 15.4101 0.69985 15.6079 0.7M14.5597 8.18463L63.3992 0.7L15.6079 0.7M15.6079 0.7C15.6079 0.7 15.608 0.700001 15.608 0.700001L15.6078 1V0.7H15.6079ZM78.2965 9.58322C78.2765 9.20632 78.1138 8.85101 77.8414 8.59063M78.2965 9.58322L77.8414 8.59063M77.8414 8.59063C77.5689 8.33018 77.2072 8.18461 76.8307 8.18463M77.8414 8.59063L76.8307 8.18463M76.8307 8.18463H64.4507M76.8307 8.18463H64.4507M64.4507 8.18463C64.7601 4.84627 64.8543 2.61825 64.867 2.23377M64.4507 8.18463L63.3994 0.7C63.5973 0.699883 63.7931 0.740046 63.9751 0.818012C64.1571 0.896007 64.3215 1.01019 64.4584 1.15358C64.5954 1.29697 64.702 1.46662 64.7722 1.6523C64.8423 1.83779 64.8745 2.03555 64.867 2.23377M64.867 2.23377C64.867 2.23396 64.867 2.23415 64.867 2.23435L64.5672 2.22291L64.8671 2.23282C64.867 2.23313 64.867 2.23345 64.867 2.23377ZM43.9701 52.4889L43.9699 52.4889C43.6717 52.6485 43.4377 52.9064 43.3066 53.2188C43.1755 53.5311 43.1552 53.8793 43.2489 54.2049L43.2489 54.205C44.3739 58.1127 46.6685 61.5666 49.8088 64.1002H29.2061C32.3455 61.5661 34.6396 58.1123 35.7647 54.205L35.7648 54.2048C35.8582 53.8795 35.838 53.5317 35.7074 53.2196C35.5767 52.9074 35.3434 52.6494 35.0459 52.4893L35.0452 52.4889C31.4218 50.5524 28.5062 46.9704 26.1664 42.5381C23.8283 38.1091 22.0797 32.8588 20.776 27.6256C18.2442 17.4623 17.4009 7.40593 17.1592 3.65361H61.8529C61.6121 7.40518 60.7706 17.4615 58.24 27.625C56.9369 32.8583 55.1887 38.1087 52.8506 42.5378C50.5107 46.9703 47.5947 50.5524 43.9701 52.4889ZM43.5832 53.3349C43.4786 53.5841 43.4624 53.8621 43.5372 54.122L44.1114 52.7535C43.8744 52.8803 43.6878 53.0856 43.5832 53.3349ZM64.1475 11.1382H75.3689C75.2542 16.1595 73.565 32.9311 56.7762 41.1853C61.208 31.4241 63.2359 19.2557 64.1475 11.1382ZM14.8629 11.1382C15.7745 19.2606 17.804 31.4312 22.2377 41.1956C5.4345 32.9457 3.74494 16.1602 3.6303 11.1382H14.8629ZM61.3718 67.0522V75.996H17.6402V67.0522H61.3718Z" fill="#7C29C4" stroke="#7C29C4" stroke-width="0.6"/>
<path d="M25.506 72.9982H53.5044C53.8941 72.9982 54.2673 72.8421 54.542 72.5651C54.8167 72.2881 54.9706 71.913 54.9706 71.5224C54.9706 71.1318 54.8167 70.7567 54.542 70.4798C54.2673 70.2028 53.8941 70.0467 53.5044 70.0467H25.506C25.1164 70.0467 24.7432 70.2028 24.4684 70.4798C24.1937 70.7567 24.0398 71.1318 24.0398 71.5224C24.0398 71.913 24.1937 72.2881 24.4684 72.5651C24.7432 72.8421 25.1164 72.9982 25.506 72.9982Z" fill="#7C29C4" stroke="#7C29C4" stroke-width="0.6"/>
</svg>
