<svg width="77" height="69" viewBox="0 0 77 69" fill="none" xmlns="http://www.w3.org/2000/svg">
<path d="M63.4651 4.76537V0.413818H13.9463V4.76537H0V7.52444C0 7.52444 0 14.0267 0 20.5292C0.00406055 22.7137 0.650891 24.943 1.80258 27.0844H1.80318C3.53689 30.2922 6.44334 33.3476 10.4213 35.6794L10.4813 35.7146L10.4219 35.6794C14.3031 37.9506 19.2171 39.5106 25.0239 39.8067L30.2482 46.1481V46.1494C31.3413 47.4756 31.9185 49.0843 31.9192 50.7377V54.7621L19.9377 58.7663V68.586H57.4746V66.0324V58.7661L45.4924 54.762V50.7375C45.493 49.0841 46.0704 47.4754 47.1634 46.1493L52.4159 39.7753C59.9991 39.2994 66.023 36.6593 70.1956 33.1269H70.195C72.362 31.2938 74.0403 29.2269 75.1961 27.0842H75.1967C76.3493 24.9428 76.9961 22.7136 77.0001 20.5304C77.0001 17.2792 77.0001 14.0266 77.0001 11.5892C77.0001 10.3685 77.0001 9.35198 77.0001 8.64214C77.0001 7.92959 77.0001 7.52549 77.0001 7.52414V4.76537H63.4651ZM9.91992 29.4448C8.18275 27.9753 6.89105 26.3573 6.04886 24.7944C5.20397 23.2329 4.82077 21.7324 4.82408 20.5293C4.82408 17.2795 4.82408 14.0269 4.82408 11.5895C4.82408 10.8378 4.82408 10.1632 4.82408 9.59141H14.6386V18.4908C14.638 23.4358 16.3824 28.2334 19.5694 32.0998L21.6316 34.6035C16.6013 33.7611 12.6972 31.7903 9.91992 29.4448ZM43.7593 43.3431C42.031 45.4385 41.0813 48.0475 41.0813 50.7377V57.939L53.0635 61.9433V64.1752H24.3481V61.9433L36.3303 57.939V50.7377C36.3317 48.0475 35.3807 45.4385 33.6522 43.3445L22.4393 29.734C19.7876 26.5152 18.3574 22.5611 18.3574 18.4908V4.82357H59.0549V18.4908C59.0542 22.5612 57.624 26.5153 54.9724 29.734L43.7593 43.3431ZM72.1752 20.5293C72.1786 21.7326 71.796 23.233 70.9505 24.7944C69.6885 27.1384 67.412 29.603 64.1405 31.5144C61.8594 32.8499 59.0955 33.9219 55.8477 34.5208L57.8423 32.0996C61.0308 28.2332 62.7746 23.4356 62.7732 18.4906V9.59141H72.1753C72.1752 12.0249 72.1752 16.2764 72.1752 20.5293Z" fill="#7C29C4"/>
</svg>
