<svg width="20" height="20" viewBox="0 0 20 20" fill="none" xmlns="http://www.w3.org/2000/svg">
<path d="M18.3203 8.93603L14.7969 12.011L15.8524 16.5892C15.9082 16.8285 15.8923 17.079 15.8065 17.3093C15.7208 17.5396 15.5691 17.7396 15.3703 17.8841C15.1716 18.0287 14.9346 18.1114 14.6891 18.1221C14.4436 18.1327 14.2004 18.0707 13.9899 17.9438L9.99689 15.522L6.01252 17.9438C5.80202 18.0707 5.55881 18.1327 5.31328 18.1221C5.06775 18.1114 4.83079 18.0287 4.63204 17.8841C4.4333 17.7396 4.28157 17.5396 4.19584 17.3093C4.1101 17.079 4.09416 16.8285 4.15002 16.5892L5.20392 12.0157L1.6797 8.93603C1.49331 8.77526 1.35852 8.56304 1.29225 8.32598C1.22598 8.08892 1.23117 7.83757 1.30718 7.60345C1.38319 7.36933 1.52663 7.16287 1.71952 7.00994C1.9124 6.85702 2.14614 6.76445 2.39142 6.74384L7.03674 6.34149L8.85002 2.01649C8.94471 1.78955 9.10443 1.5957 9.30907 1.45935C9.51371 1.323 9.75411 1.25024 10 1.25024C10.2459 1.25024 10.4863 1.323 10.691 1.45935C10.8956 1.5957 11.0553 1.78955 11.15 2.01649L12.9688 6.34149L17.6125 6.74384C17.8578 6.76445 18.0915 6.85702 18.2844 7.00994C18.4773 7.16287 18.6207 7.36933 18.6968 7.60345C18.7728 7.83757 18.778 8.08892 18.7117 8.32598C18.6454 8.56304 18.5106 8.77526 18.3242 8.93603H18.3203Z" fill="#FBBF24"/>
</svg>
