<svg width="121" height="80" viewBox="0 0 121 80" fill="none" xmlns="http://www.w3.org/2000/svg">
<path fill-rule="evenodd" clip-rule="evenodd" d="M84.7149 55.7182C86.4629 57.4585 87.8034 59.6847 89.8728 58.6029C90.6724 58.1875 91.5268 57.5917 92.2636 56.8862C93.4865 55.7182 94.9602 53.7742 93.7844 52.2221C89.716 48.3106 81.9007 41.7338 81.8772 41.7181L84.3464 38.9197C84.3543 38.9275 86.0318 40.4012 88.211 42.455C91.0486 45.1358 95.0229 47.7462 96.9434 50.427C98.0252 51.9321 97.7978 54.5894 97.2256 56.1494C96.771 57.4036 95.8852 58.5872 94.8348 59.5906C93.8471 60.5391 92.6791 61.3543 91.5817 61.9187C90.4764 62.491 89.3633 62.8202 88.4148 62.828C88.3834 62.977 88.3442 63.1337 88.305 63.2827C87.9915 64.3409 87.3173 65.2659 86.4708 66.0263C85.7104 66.7082 84.7933 67.2726 83.8761 67.6803C82.8727 68.1192 81.8223 68.3701 80.8817 68.3857C80.8503 68.6915 80.7876 68.9893 80.7014 69.2872C80.3878 70.3454 79.7137 71.2704 78.8671 72.0308C78.1067 72.7128 77.1896 73.2772 76.2725 73.6848C74.9242 74.2805 73.4819 74.5235 72.3531 74.3276C72.3139 74.7273 72.2355 75.1114 72.1257 75.472V75.4799C71.7887 76.5851 71.1459 77.518 70.3228 78.2078C69.4997 78.8976 68.4964 79.3444 67.4303 79.4933C66.1369 79.6736 64.7651 79.4149 63.5423 78.6154C63.2052 78.3959 62.8368 78.1137 62.4056 77.7688L62.1626 77.5807L58.5176 74.7665L60.7908 71.8191L64.4359 74.6333L64.6789 74.8214C65.0159 75.0801 65.2981 75.3074 65.5882 75.4877C66.0115 75.7699 66.4818 75.8561 66.9208 75.8013C67.2892 75.7464 67.6341 75.5896 67.9241 75.3466C68.2063 75.1114 68.4337 74.7822 68.5513 74.3981C68.7002 73.8886 68.6767 73.2536 68.4023 72.5168C65.2903 68.1741 58.7841 62.9064 58.7684 62.8907L61.1201 59.9982C61.1357 60.0061 63.7696 62.1461 66.5915 64.9053C67.3441 65.6422 68.175 66.4574 69.0451 67.2334C69.2019 67.3745 69.3665 67.5156 69.5233 67.6567C69.5546 67.6881 69.5938 67.7194 69.6252 67.7508C69.829 67.9311 70.0328 68.1192 70.2366 68.3074C70.9264 68.9266 71.6084 69.5537 72.3217 70.1024C73.1683 70.706 73.1526 70.8314 74.1168 70.5414C74.3206 70.4787 74.5401 70.369 74.7753 70.2671C75.3553 70.0162 75.9197 69.6635 76.3744 69.2559C76.7428 68.9188 77.025 68.566 77.1269 68.2211C77.2053 67.9468 77.1504 67.6175 76.8839 67.2491C73.7562 62.8986 65.157 55.342 65.1335 55.3185L67.6027 52.52C67.6184 52.5357 72.4001 56.7373 76.296 60.8448C77.3542 61.8874 78.9298 63.314 80.0665 64.1998C80.4819 64.4977 80.7719 64.8818 81.3991 64.6623C81.6656 64.5682 82.0026 64.435 82.3789 64.2704C82.959 64.0195 83.5234 63.6668 83.978 63.2592C84.3464 62.9299 84.6286 62.5693 84.7305 62.2244C84.8089 61.9501 84.7541 61.6209 84.4875 61.2446C81.3599 56.8941 72.7607 49.3375 72.7372 49.3139L75.2064 46.5155C75.2142 46.5155 80.7092 51.352 84.7149 55.7182Z" fill="#7C29C4"/>
<path fill-rule="evenodd" clip-rule="evenodd" d="M119.894 42.5098L108.355 1.77941L107.854 0L106.074 0.486006L91.3061 4.53867L89.4875 5.04035L89.997 6.84328L90.6946 9.30466C83.6084 9.94744 76.7024 8.43456 70.2589 7.03141C57.4346 4.23295 46.3192 1.81076 37.7357 15.4895C35.4154 19.1972 32.8835 23.6026 32.2955 26.9733C31.4881 31.559 33.2832 34.4986 40.542 33.166C45.0022 32.3507 47.7537 30.1089 50.317 28.0159C53.2173 25.6486 55.8276 23.5243 60.8915 25.0293C63.5489 26.1267 63.7919 26.2286 65.8691 27.9767C72.7751 33.7696 89.1896 48.0754 89.3856 48.24L92.7876 51.2344L93.7361 52.0653L94.8571 51.4931L101.677 48.0284L102.092 49.4942L103.88 48.9847L118.609 44.8145L120.404 44.3049L119.894 42.5098ZM94.2927 47.5894L91.8391 45.4337H91.8313C91.7842 45.3945 74.97 30.736 68.2521 25.1077C65.7359 22.9991 65.4537 22.8815 62.2555 21.5567L62.1771 21.5254L62.0046 21.4626C55.0281 19.354 51.6809 22.0898 47.9653 25.1234C45.7548 26.9263 43.3953 28.8546 39.8757 29.4974C36.5834 30.101 35.7054 29.1604 35.9798 27.6083C36.4658 24.8412 38.7704 20.8591 40.8947 17.4649V17.457C48.0672 6.00453 58.0068 8.16804 69.4672 10.6686C76.3888 12.1737 83.82 13.7963 91.7294 12.934L100.634 44.3676L94.2927 47.5894ZM104.656 44.885L94.1045 7.62748L105.275 4.56251L115.802 41.7263L104.656 44.885Z" fill="#7C29C4"/>
<path fill-rule="evenodd" clip-rule="evenodd" d="M30.3989 6.83544L29.6542 9.4536C32.9935 9.52415 39.3194 9.46928 44.5871 8.27778L45.4024 11.915C39.2097 13.3181 31.7472 13.2554 28.6116 13.1535L20.2868 42.5412C23.4459 43.5367 29.3955 46.1235 29.8737 51.595L26.1503 51.9164C25.8602 48.6006 21.6665 46.8525 19.2678 46.1157L18.821 47.6913L18.3114 49.4864L16.5242 48.9769L1.79508 44.8066L0 44.2971L0.509522 42.5098L12.0482 1.77941L12.5499 0L14.3293 0.486006L29.0976 4.53867L30.9163 5.04035L30.3989 6.83544ZM15.7482 44.885L26.2992 7.62715L15.1289 4.56219L4.60138 41.726L15.7482 44.885Z" fill="#7C29C4"/>
<path fill-rule="evenodd" clip-rule="evenodd" d="M58.4071 69.3735C58.0465 69.107 57.6075 69.0208 57.1842 69.0835C56.761 69.1462 56.369 69.3657 56.1025 69.7184L53.2178 73.63H53.2256C52.9591 73.9906 52.8651 74.4374 52.9278 74.8529C52.9905 75.2683 53.21 75.6603 53.5627 75.9268L53.6176 75.9738C53.9625 76.209 54.3858 76.2874 54.7856 76.2247C55.2089 76.162 55.6008 75.9425 55.8673 75.5897L58.7598 71.6703C59.0264 71.3097 59.1126 70.8708 59.0499 70.4475C58.9793 70.032 58.7598 69.6401 58.4071 69.3735ZM37.3916 46.3823C38.7712 47.4014 39.6178 48.8907 39.853 50.4663C39.9549 51.1405 39.947 51.8303 39.8216 52.5044C40.4409 52.1909 41.1072 51.9792 41.7892 51.8773C43.4275 51.6343 45.152 52.0027 46.5865 53.061V53.0688C48.0288 54.1271 48.899 55.6713 49.142 57.3096C49.2439 57.9602 49.236 58.6265 49.1341 59.285C49.3301 59.238 49.5182 59.1988 49.7142 59.1674C51.1957 58.9479 52.7635 59.285 54.0569 60.2413L54.151 60.3197C55.3973 61.2761 56.1577 62.6478 56.3772 64.0823C56.4477 64.5292 56.4634 64.9838 56.4242 65.4385C56.4948 65.4228 56.5575 65.415 56.628 65.4071C57.9763 65.2033 59.4186 65.5168 60.6101 66.3948C61.8095 67.2806 62.5306 68.5583 62.7344 69.9144C62.9383 71.2627 62.6247 72.705 61.7389 73.8965L58.8464 77.8159C57.9606 79.0153 56.6829 79.7364 55.3268 79.9402C53.9785 80.1441 52.544 79.8305 51.3447 78.9526V78.9604C50.1532 78.0825 49.4242 76.7969 49.2203 75.4329C49.1968 75.2762 49.1812 75.1194 49.1733 74.9626C48.8441 75.0724 48.507 75.1586 48.1699 75.2056C46.6963 75.4251 45.1285 75.088 43.8272 74.1239C42.526 73.1597 41.7343 71.7644 41.5148 70.2907C41.4678 69.9928 41.4442 69.6949 41.4521 69.3892C40.9582 69.593 40.4487 69.742 39.9235 69.8204C38.2852 70.0634 36.5607 69.6949 35.1262 68.6367C33.6917 67.5785 32.8137 66.0264 32.5707 64.3881C32.4453 63.5807 32.4767 62.7498 32.6726 61.9424C32.1553 62.1775 31.6065 62.3343 31.05 62.4205C29.4744 62.6557 27.8126 62.2951 26.4329 61.2839C25.0533 60.2648 24.2067 58.7755 23.9715 57.1999C23.7364 55.6243 24.097 53.9625 25.1082 52.5828H25.116L28.7062 47.7149C29.7252 46.3274 31.2146 45.4887 32.7824 45.2535C34.3423 45.0027 36.0041 45.3633 37.3916 46.3823ZM36.1609 51.0151C36.0668 50.3801 35.7298 49.7844 35.1889 49.3846V49.3767C34.6402 48.977 33.9739 48.8359 33.3311 48.9299C32.6883 49.024 32.0926 49.3611 31.6928 49.9019L28.1026 54.762H28.1104C27.7028 55.3107 27.5617 55.9849 27.6558 56.6198C27.7499 57.2547 28.0869 57.8505 28.6278 58.2503C29.1765 58.6579 29.8507 58.799 30.4856 58.7049C31.1205 58.6109 31.7163 58.2738 32.1161 57.7329H32.1239L35.7141 52.8729H35.7062C36.106 52.3241 36.255 51.65 36.1609 51.0151ZM45.4496 57.8583C45.3476 57.1607 44.9792 56.5022 44.3835 56.0633V56.0711C43.7799 55.6243 43.043 55.4675 42.3454 55.5694C41.6399 55.6791 40.9893 56.0397 40.5425 56.6355L36.7485 61.7777C36.3095 62.3813 36.1527 63.1182 36.2546 63.8158C36.3565 64.5135 36.725 65.1641 37.3207 65.6109C37.9243 66.0577 38.6611 66.2145 39.3588 66.1126C40.0643 66.0107 40.7149 65.6423 41.1617 65.0465L44.9557 59.9043C45.4025 59.3007 45.5593 58.5638 45.4496 57.8583ZM52.6848 64.6311C52.6064 64.0824 52.3242 63.5728 51.8617 63.2358V63.2436C51.3914 62.8987 50.8191 62.7733 50.2783 62.8595C49.7374 62.9379 49.2279 63.2201 48.8908 63.6904L48.8281 63.7688L45.5985 68.1507V68.1585C45.2536 68.621 45.136 69.1933 45.2222 69.7341C45.3085 70.2828 45.5907 70.7924 46.0531 71.1294C46.5156 71.4743 47.0879 71.5919 47.6366 71.5057C48.1853 71.4195 48.6948 71.1373 49.0319 70.6748L52.3245 66.2145C52.6456 65.752 52.771 65.1798 52.6848 64.6311Z" fill="#7C29C4"/>
</svg>
