<?xml version="1.0" encoding="UTF-8"?>
<svg xmlns="http://www.w3.org/2000/svg" version="1.1" xmlns:xlink="http://www.w3.org/1999/xlink" viewBox="0 0 1443.6 280.6">
  <!-- Generator: Adobe Illustrator 29.2.1, SVG Export Plug-In . SVG Version: 2.1.0 Build 116)  -->
  <defs>
    <style>
      .st0 {
        fill: #22699d;
      }

      .st1 {
        fill: #2b241e;
      }

      .st2 {
        display: none;
        font-family: MyriadPro-Regular, 'Myriad Pro';
        font-size: 12px;
      }

      .st3 {
        fill: #896231;
      }

      .st4 {
        fill: #e2d01e;
      }

      .st5 {
        fill: #e2cb9b;
      }

      .st6 {
        fill: #9c9d9c;
      }
    </style>
    <image id="image" width="1000" height="200" xlink:href="../../Downloads/cc-responsive-wp-theme-logo.png"/>
  </defs>
  <g id="Layer_11">
    <path class="st1" d="M249.3,204v-.2c-1.5-2.5-3.1-4.8-4.8-7.1h0c-.1-.1-.2-.3-.3-.4-9.2-8.9-18.2-8-19.4-7.8,0,0,.8-1.6.8-1.7,4.9-10.5.7-23.7.7-23.7,0,0,2.1-15.8-2.5-30.8-1.1-3.5-4.5-8.6-10-13.9h0c4.2-8.5,5.1-16.6,5-17.5,0,0,0,0,0,0,0,0,12.8.3,16.9-7.4,1.3-2.5.4-3.3,1.2-7.8.8-4.5,2.3-7.3,3.9-9.6s1.3-2.4,1.7-3.7.2-.7.3-.9c2.5-12.7-8.3-17.6-11.7-15.3-.5.3-.1.7,0,0,3.3-17.1-5-28.2-5-28.2,0,0,0,0,0,0,0,0-1.2-1.3-1.2-1.3,0,0-22.5-24.7-55-19.8-26.3,4-37.8,24.7-41.2,32.5-.6,1.4-2.3,1.9-3.6,1.2-4-2.2-8.2-1.6-9.8-1.2-.3,0-2,.5-2.3.6s0,0,0,0c.5-4.6.6-11.6.8-14.2.5-4.1,1.1-9.9,1.1-9.9-.7-7.3-8.5-4.7-8.5-4.7,0,0,0,0,0,0-1.6,4.3-14.7,17.9-14.7,17.9,0,0,0,0,0,0-29.5-4.3-39.6,18.5-39.6,18.5,0,0,0,0,0,0-3,1-5.5,1.5-7.1,1.2-11.8-2-19.7-6.4-24.8-9.8-.4-.3-2-1.4-2.9-2.6-.8-1-3-3.5-3.8-4-.8-.5-2.2,2.2-7.1,3.6-6.5,1.7-3.6,4.4-1.8,5.7.7.5,3.4,2.3,3.4,2.3-.3-1.5-.9,6.8-.8,14.2,5.8,25.2,44.5,26.2,52.8,25.5,1,0,2,.5,2.4,1.4,11.1,22.8,52,49.4,52.5,49.7h0c-.4,10.1.3,19.1.3,19.1-3.7,11.8-3.5,29.8-2.9,31.2s-1.4.7-1.5.7c-26.9-3-31.7,15.7-32.5,23.4s1.2,4,3.3,4.5,0,0,0,0c6.4,1.3,15.1,1.3,20.2,1.1,2.8-.1,5.5-.8,7.9-2.1,5.2-2.5,15.1-2.8,19.6-2.7,1.5,0,3,.2,4.5.6.9.2,1.8.5,1.8.5,12,3.9,18.1,3.7,21.6,3.3,4.5-.6,6.6-2.8,6-7.3-.2-1.9-.2-4.7-.2-6.3s.8-2.1,1.6-2.6c1.6-.9,3.3.5,3.3.5.2.1.4.6.6,1,.3.7.5,1.5.6,2.3,1.2,11.6,8.1,11.4,8.1,11.4,2,0,2.9,1.3,2.6,2-.2.7-.8,1.1-1.5,1.4-9.8,4.1-11.8,11.5-11.8,11.5-1.6,4.8.5,7.7.9,8.2,0,0,0,0,.1.1,5.7,5.7,12.7,1.5,13.8.6,0,0,1-1,1-.9-2.2,6.3-1.9,9.2-.7,11.7.5,1.1,1.4,1.9,2.3,2.8.3.3.6.5,1,.8,1.6,1,3.6,1.2,5.5.8,7.3-1.7,11.5-10.5,11.4-11.8,0-.6,0,0,0,0,.9,3.3,2.7,10.9,10.6,11.2,7.7.3,7.3-13.3,7.3-14.2,0,0,0,0,0,0,11,4.8,13.4-.3,13-5.5s-1.2-5-2.8-7.1c-2.3-3.1-6.3-8.3-6.3-8.3,0,0,0,0,0,0-6.7-6.7-3.1-5.2-.3-3.7s3.4,1.4,5.2,1.6,1.3.1,1.3.1c0,0,0,0,0,0l14.6-.9c7.2-.7,5.8-5.7,5.2-7.4,0-.2-.6-1.9-.7-2.1ZM117.4,95.4c-.6-.9-1.1-1.2-1.8-2s-1.2-1.3-1.8-2-.3-.3-.4-.5c-.9-1.2-2-2.2-3.2-3.1s-.7-.5-1.5-1.2c-2.8-2.2-6.2-4.6-7.5-5.5s-.4-1.1.6-1.8.9-1.1,1.1-1.5c1.2-2,1.1-2.6,1.2-3.1s1.2,5.2,5.4,8.6c4.7,3.9,8.2,2.9,8.4,3.3.2.7-.1,9.5-.5,8.9Z"/>
  </g>
  <g id="Layer_2">
    <path class="st5" d="M195.4,42.4c7.5-5.1,33.1-19.9,30.6,16.8,0,.1,0,.3,0,.4-.4,1.8-3.4,14.9-12.1,28.1-.4.6-.6,1.4-.4,2.2,1.6,6.9,7.5,43.4-45.7,43.8-1.5,0-4.2.5-4.7-.8s2-3.8,2-4.7-1-1.5-1.8-1.1c-5.8,3.2-23.2,11.3-23-8.7,0-.6-.2-1.2-.5-1.7-2.8-3.8-14.3-21.8,6.9-40.5.7-.6,1.1-1.6.9-2.6-.9-4.5-2.9-18,2-28.8,5.8-12.9,16.7-32.7,42.2-3s2.5,1.3,3.7.5Z"/>
  </g>
  <g id="Layer_17">
    <circle class="st1" cx="172" cy="60.7" r="13.3"/>
    <circle class="st1" cx="204.2" cy="67.7" r="12.9"/>
  </g>
  <g id="Layer_18">
    <circle class="st5" cx="168.4" cy="58.4" r="4.5"/>
    <circle class="st5" cx="202.2" cy="65.2" r="4.5"/>
  </g>
  <g id="Layer_19">
    <path class="st1" d="M164.3,82.9c.5-1.1,3-3.7,15.6-2.9l4.2.8c4.3,1.5,13.3,5.3,13.7,11.4,0,0,.9,1-4.5-3-3.5-2.6-8-5.6-14-6.6-6.1-1-10.5.5-10.9.6,0,0-.3.1-.7.2-.6.2-1.2.4-1.9.4-.6,0-.9.1-1.4-.3s-.2-.7-.1-.8Z"/>
    <circle class="st1" cx="173.1" cy="92.6" r="4.1"/>
    <circle class="st1" cx="184.2" cy="95.7" r="4.1"/>
  </g>
  <g id="Layer_21">
    <path class="st1" d="M162.5,120c-13.4,2-11.4-13.4-11.4-13.4,5.6-1.6,1.5-3.6,1.5-3.6-1.3-.2-4.1-.4-6.1.9-.8.6-.9,1-1,1.2,0,.7.6,1.5,1.7,2.1l.5,4.6c.4,3.3.9,4.8,1.4,5.9.4.5,1.4,2,1.8,2.3,5.6,4,8.8,2.7,8.8,2.7,8-4.7,2.7-2.7,2.7-2.7Z"/>
  </g>
  <g id="Layer_3">
    <path class="st3" d="M195.4,38c1.7-2.1,8.5-13.3,14.2-13.3s-2-5.1-2.9-5.6c-6.9-4.4-6.9-5.6-27.4-7.9h0s-39.7-2.1-47.5,34,0,0,0,0c-.8,3.4-1.1,6.1-1.2,8-.1,1.5,0,2.6,0,7.6,0,1.1,0,5.9,0,6.9h0c-.1,1.3-.4,2.9-.9,4.7-.6,1.9-1.3,3.5-2,4.8s0,0,0,0c-.5.5-6.9,7-6.9,10.2,0,0-1.4,5,0,9.6,1.3,4.3,6.8,13.5,14.6,20.1s.9-.1.7-.6c-1.4-2.7-3.7-7.8-4.2-11.3-.7-5-.7-5.6,0-10.9.7-5.3,5.8-13.1,13.1-19.7s.1-.2.1-.3c0-1-1-6.9-2-11.1,0,0-.6-18.2,1.7-28.1s-1.5,4.6-1.2,3.9c.8-2.2,2.2-20,20.8-23.1,0,0,2.2-.9,6.1-.5,5.8.6,11,3.7,14.5,8.3s7.4,10.2,8.9,14.6,1.6-.2,1.7-.4Z"/>
  </g>
  <g id="Layer_4">
    <path class="st3" d="M123.7,113.3c1.8,2,10.3,5.5,11.2,9.7,1.7,7.7,8,10.6,11.3,11.9s2.3.2,2.6.2c3.6,0,31.9.6,35,0,0,0,14.6-.3,27.3-13.1s1.2-.5,1.7-.1c3.9,3,17.7,16.1,5.3,43.9,0,0-4.9,10.2-1.1-9.5,0,0-.8-3.9-3.1,1s-.2.4-.2.6c-.9,3.2-8.2,31,3.3,51.1.3.5.2,1,0,1.4-2.2,2.8-11.6,12.8-31.4,5s-.9-.9-.8-1.5c1.4-5.9,7.7-34.1,3.1-50.3s0-.1,0-.2c-.5-1.1-6.2-14.3-13.5-17.4,0,0-3.6-1,.3,3.6s9.5,9.8,8.3,41.8-.5,1.1-1.1,1.2c-7.1,1.1-48,5.2-61.9-41.4,0,0,0,0,0-.1-.3-1.3-4.4-22.9,1.7-37.4s1.5-1.1,2.1-.4Z"/>
  </g>
  <g id="Layer_5">
    <path class="st3" d="M222.9,166.8c.4-.2.9,0,1.1.4.5,1.3,1.5,10.7,1.1,12.8s0,0,0,0c-4.3,8.9-7.2,12.4-8.7,12.7-1.5.4-.5-13.7-.3-15.1s0,0,0,0c.5-1.2,2.3-8.6,6.8-10.9Z"/>
  </g>
  <g id="Layer_6">
    <path class="st3" d="M118.2,161.3s8.5,29,35.6,34c0,0,2.6,3-6.6,4h-16.2s-11.6-1-15.2-12.5c0,0-.8-27.1,2.4-25.4Z"/>
  </g>
  <g id="Layer_7">
    <path class="st3" d="M114.9,130.4s-37.7-24.8-49.9-46.9c0,0,5.8-4.1,11.3-1.5s6.3,2.7,8.4,2.4,6.6.2,11.9-2.2c0,0,15,9.2,19.1,15.5s3.9,6.1,4.3,8.9-.5,4.7-1.9,6.6-3.1,10.1-3.2,17.3Z"/>
  </g>
  <g id="Layer_8">
    <path class="st3" d="M233.5,60c2.7.6,6.9,2.8,6.1,10.2-.2,1.7-.8,3.4-1.7,4.9-.7,1.2-1.8,3.2-3,6.4-1.5,3.9-1.7,6.3-1.7,7.6,0,1.5-.4,2.9-1.1,4.2-1,1.6-2.5,3.5-5.1,3.9-5.3.9-7.2.6-7.2.6,0,0-1.1-.2-1.1-.2-.3,0-.9-3.1-1.4-5.2-.3-1.1-.8-4.3,2.1-8.8,1-1.3,1.9-2.8,2.9-4.4,1.5-2.4,2.8-5.4,3.6-6.8,0,0,2-3.8,2.2.9.1,3.5.1,7.1,0,8.9s-.2,2-.6,2.9-1.4,2.1-2.7,1.4-1-1.8-.4-2.5,1.3-1.7,1.5-2.8.2-2.7-2-1.3c0,0-4.3,4.6-2,10.2s8.4-3.3,8.4-3.3c0,0,4.1-12.2-.7-18s-1-1.6-1-2.5c0-1.3,0-3.2.9-4.8s2.4-1.9,3.9-1.6Z"/>
  </g>
  <g id="Layer_9">
    <path class="st3" d="M107.8,70c.1.5.2,1,.3,1.5.2,2.6,2.7,11,9.9,11.8.5-.1,1.2-.4,2-.9,1.3-.9,1.8-2,2.6-3.6,2.9-5.8,2.9-5.6,3.3-6.7.4-1.1.8-2.7,1-4.7v-17.8c0-.4,0-.7,0-1.1.1-1.2,0-4.6-4.6-5.8-4.8-1.3-9.9.8-12.5,5-.9,1.5-1.8,3.4-2.3,5.6-.1.6-.2,1.3-.2,1.9,0,2.9-.2,11.2.5,14.6Z"/>
    <path class="st1" d="M111.6,68.8v-9.4s1.4-7.1,5.5-7.9,5.9,4.1,5.9,4.1c0,0,3,6.4,0,14s-8.5,5.3-8.5,5.3c0,0-2.9-1.6-2.9-6Z"/>
    <path class="st3" d="M118,54.8s3.8-.5,3.5,9.1-.4,1.1-.9,1.3-1.3.3-1.7-.4c-.9-1.6-2.4-2.6-4.3-3.4,0,0,0-6.6,3.5-6.6Z"/>
    <path class="st3" d="M114.7,63.8c.2,0,.4.1,1,.8,1.6,1.8,2.5,2.7,2.8,3.9.2.6.3,1.6-.5,2.2-.4.4-.7.8-2,.6-.5,0-.8-.5-.9-.6-.2-.2-.4-.4-.6-.8-.5-1-.5-2.1-.5-2.4,0-1,0-3.5.6-3.7Z"/>
  </g>
  <g id="Layer_10">
    <path class="st5" d="M81.7,76.9s7.9-1.7,17.6-11.4,0,9.7,0,9.7c0,0-4,7-16.4,5.2s-1.2-3.5-1.2-3.5Z"/>
    <path class="st5" d="M87.8,31.1s-23.1-2.7-33.9,25.4c0,0-2.7,7.7.6,12.8,0,0,4.9,7.5,8.5.6s1.9-8.9,1.9-8.9l-1.1-5.9c-.1-.8.5-1.6,1.3-1.6s2.3.9,3.6,4.8,2.5,5.9,4.7,8.3,4.9,4.4,7,3.1c0,0,3-.6,1.6-8s-1.7-5.9-3.2-8.6-2.2-3.8-3.3-5.2-.7-1.2-.8-2c-.1-1.2.2-2.5,2.9-1.5s1.6.9,2.2,1.5c1.8,1.8,6.2,4.9,9.8,6.3s2.7.8,4.1.8c2.3,0,4.7-.9,3.5-5.5-1.9-7.3-12.5-10.1-12.5-10.1,0,0-2.2-1.4,1.6-3.4s4.8-2.9,1.4-2.7Z"/>
    <path class="st5" d="M-104.1-4.9"/>
  </g>
  <g id="Layer_12">
    <path class="st5" d="M110.5,189.9c-4.7-1.5-23.7-6.2-28.7,17.9-.1.6.2,1.3.8,1.5,1.2.5,3.2,1.1,5.5.7s1.5-.8,1.6-1.6c.5-3.2,2.6-11.9,10.7-13.3s1.3.5,1.2,1.1,0,0,0,0c-.2,1.5-1.3,2.1-2.7,3.3s-4.6,2.8-4.9,9,.6,1.5,1.3,1.5c2.7.2,8.5.4,11.5-1.3s1-.4,1.5-.5c2.7-.6,9.8-2.1,11.6-2.1s12.5-1,19.8,2c0,0,11.9,4.1,18.9,2.1,0,0,2.8-.1,1.9-9.5s-.7-1-1.3-.8c-3.4,1.2-14.2,4.8-22.4,4.3s-19.1-2.2-24.6-13-.9-1.1-1.5-1.3Z"/>
  </g>
  <g id="Layer_13">
    <path class="st5" d="M183.3,218.4c-.6-.2-1.2.2-1.9.3-3.8.5-16.8,11.3-10.8,16.3,5.4,4.5,11.4-2.5,13.6-5.4s1.4-1.4,2.4-1.7,2.4-.1,1.2,2.8c-2,5-5.6,12.9-1.7,17.5s12.9-3.3,15.5-13.7.7-1.5,1.1-1.3c.6.1.6.7.6,1.1.4,4,3,15.9,9.9,14.2s3.3-16.3,1.5-18.7-1-1.5-1.1-2.7.4-2.3,2.6-1.3,1.6,1.5,2.2,2.7c1.6,3,5.1,9.3,10.1,7.7,0,0,3.9-1.1.2-8l-.5-.8c-1-1.4-4.3-6.2-7.4-9.5s-4.1-2.1-6.1-.9-6.2,3.2-10.4,4.4-.7.1-1,.2c-2.3.2-10,1.2-13.2-.2-2-.9-7.1-2.8-2.2-.8,0,0-3.5-1.5-5-2Z"/>
  </g>
  <g id="Layer_14">
    <path class="st5" d="M223.9,192c2.5-.7,15.2-3,22.8,14.5s-.6,4-2.7,4h0c-1.4,0-2.5-1-2.7-2.4-.3-1.8-1.9-4.6-7.3-8.3s-.6-.3-.9-.4c-1.3-.3-4.2-.8-1.4,2.9,0,0,1,.8,1.2,1,1.7,1.2,6.1,3.8,6.1,7s-3,1.1-3.2,1.2c-2.9.3-6.5-.2-9.2-.8-.6-.1-1.1-.3-1.1-.3-.5-.1-1.4-.4-2.3-.8,0,0-1.3-.7-2.4-1.7-1.5-1.4-4.1-7.2-4.7-10.2s0-.4.1-.5c1.7-2,4.1-3.5,6.3-4.9s1.2-.1,1.4-.2Z"/>
    <path class="st5" d="M174.7,198.8c1.9-.8,5.9-1.8,7.8-.9s.8,1.5.7,2.6l-1.2,9.7c0,.2-.2.4-.4.5l-1.2.2s-8.1,1.4-7.5-9.5c0-1.1.8-2.1,1.8-2.5Z"/>
  </g>
  <g id="Layer_15">
    <circle class="st1" cx="163.9" cy="181.8" r="4.1"/>
    <circle class="st3" cx="164.2" cy="181.5" r="1.7"/>
  </g>
  <g id="Layer_16">
    <path class="st4" d="M10.7,46c-.7-3.5.3-3,.7-3.6,1.3-2,1.3-2.9,3.6-2.3,2.4.7,4.1,1.5,6.5,4,1.2,1.2,5.1,2.7,12.8,5.7,3.4,1.3,6.8,2.4,11.3,2.5,0,0,.1,0,.2,0l4.6-.2s-2.5,6.6-.5,15.6c.7,3.1,5.3,7.8,7.7,8.4,5.6,1.5,10.1-4.5,10-9.6,0-.9,0-1.7,0-2.6,0,0,3.5,7.7,7.8,8.9,0,0,8.6,2.7,9.2-5.2.7-7.8-2.7-16.5-2.8-16.3-.2.1,6.5,5.5,10.9,5.5s7-1.3,8.4-5.5c1.1-3.3.3-6.4-2-9.6-2.3-3.2-5-3.6-9.7-5.6,0,0,9.6-7.5,12.1-11.9.3-.5.7-.8,1.2-.9,1.3-.3,4-.1,8.3,3.2.5.4.7.9.7,1.5-.1,2.6-.5,10.2-1.7,13.7-.1.4-.3.7-.6.9-1.2.9-4.6,4-6.3,12.2,0,0,0,0,0,.1-.3,1-5,15.7-32.3,23.7,0,0-.1,0-.2,0-1.2.2-16.9,3-30,.4-13.4-2.7-24.1-8-28.8-18.9-.2-.5-1.3-7.1-1.2-10.3,0,0,.6-2.3.3-3.7Z"/>
    <path class="st1" d="M15.3,49.8s2.7,14.1,24.4,13.1c0,0-.5,2.7-6.1,2.9s-7.9-1.1-11.2-3.3-8.7-7-7.1-12.6Z"/>
    <path class="st1" d="M103.9,37.4s1-8.7,3.3-8.4,0,8.4,0,8.4c0,0-3.9,3.6-3.3,0Z"/>
    <path class="st3" d="M103.4,20.7c1-1.4,2-2.8,3.1-4.5.6-1,1.2-1.9,1.7-2.8.2,0,.5,0,.8,0,0,0,.6,0,1.2.2.7.2,1.5.7,2,1.2.8.9.6,2.1.4,3.8-.2,1.4-.4,3.5-.6,6.1-.5-.7-1.5-1.9-3.1-2.8-2.3-1.3-4.5-1.2-5.4-1.1Z"/>
  </g>
  <g id="Layer_1">
    <use transform="translate(363.2 334.8) scale(.6)" xlink:href="#image"/>
    <use transform="translate(-.3 -16.1) scale(1.4)" xlink:href="#image"/>
    <text class="st2" transform="translate(276.6 25)"><tspan x="0" y="0">cyberchimps</tspan></text>
    <path class="st6" d="M494.2,73.2s-15.3,13-18.4-8c0,0,.7-15.5,12.6-10.4,0,0,2,3.6,1.7,5s7.5,0,7.5,0v-12.6s-31.3-11.2-32.3,17.9c0,0,2.4,31.5,32.3,15.5l-3.4-7.5Z"/>
    <path class="st6" d="M499.3,27.9h17v20.1s18.7-9.9,23.1,5.1v25.7h4.8v6.4h-19.1v-6.4h4.4v-22.2s-6.1-8.1-13.6,0l-.3,22.2h4.4v6.4h-20.8v-6.4h6.5l.7-43.7-7.1.3v-7.5Z"/>
    <polygon class="st6" points="549 45.2 564.4 45.2 564.4 78.8 568.8 78.8 568.8 85.2 549 85.2 549 78.8 553.1 78.8 553.1 52.1 549 52.1 549 45.2"/>
    <path class="st6" d="M573.2,45.2h14v4.2s18.4-9.2,23.1,0c0,0,17.7-7.8,23.8,0v29.4h5.1v6.4h-18.4v-6.4h4.8v-22.2s-5.4-5-13.3,0v22.2h3.1v6.4h-18.7v-6.4h4.8v-22.2s-5.4-6.1-13.3,0v22.2h4.4v6.4h-19.4v-6.4h5.1v-27.1h-5.1v-6.5Z"/>
    <circle class="st6" cx="558.9" cy="33.6" r="6.4"/>
    <path class="st6" d="M680.8,49.3c-12.3-11.2-22.8,0-22.8,0v-4.5h-14.6v7.2h5.8v43.2l-5.8-.3v6.1h22.1v-6.1h-6.5v-10.1c17.7,1.8,21.8-6.4,21.8-6.4,9.2-15.2,0-29.1,0-29.1ZM673.9,68.1c-.2,1.6-.2,3.4-1.1,4.9-.7,1.3-1.7,2.5-2.8,3.5-1.2,1.1-2.6,2-4.3,2-1.5,0-6.8.2-7.3,0v-1.4c0-.8,0-20.6,0-20.8,1-1.9,3-3.5,5.2-3.8s5.7.4,7.4,2.4c.6.7.6.6.6.7,1.4,1.9,1.3,1.9,1.8,3.1.5,1.3.4,9.1.3,9.5Z"/>
    <path class="st6" d="M688.3,73.1h6.5v4.9s6.5,3.4,12.6,0c0,0,3.4-4.1,0-7.1,0,0-3.6-1.4-10.8-3.4s-13-14.6-1.8-20.4c0,0,8.4-4.1,22.1,0v9.6h-7.4s1.7-5.8-5.4-4.1c0,0-5.8-.9-5.4,4.1,0,0,1.4,3.7,5.8,4s14.6,4.2,14.3,12.5-4.8,10.6-9.5,12.1-17.4-.5-20.8-1.8v-10.3Z"/>
    <g>
      <path class="st1" d="M1235.4,127.6l20.3,53,20.3-53h20.3l2.1,2.1v76.8l-2.3,1.9c-1.3.4-2.6.2-3.9.3-3.5.3-8.4.7-10.6-2.2v-56.5l-21.7,57.2-12.1.6-22.3-57.8v58.6l-10.3-.2-2.3-3.3c2-22.9-2.7-50.3,0-72.7.2-2,.2-3.6,2.2-4.8h20.3Z"/>
      <path class="st1" d="M315.3,127.6c17.3,2.1,28.9,15.8,20.4,32.9s-9.3,7-12.7,12.4l14,35.7-16.1-1.4-13.5-33.3-16.6-.2v32.8l-2.3,1.9c-1.3.4-2.6.2-3.9.3-3.5.3-8.4.7-10.6-2.2v-76.8l2.1-2.1c12.4,1.1,27.2-1.5,39.2,0ZM290.7,162.6h21.7c.4,0,6.3-3.5,7-4.2,5.2-6.1,1.1-19.5-7-19.5h-21.7v23.7Z"/>
      <path class="st1" d="M700,179.3v-51.7h12.6v81l-13.4-1.3-38.4-53.1v52.4c-3,3.3-11,3.3-14,0v-76.8c2.8-3.3,11.5-3,14.8-.8,12.6,13.9,21.5,33.6,33.6,47.5s2.2,3.4,4.8,2.9Z"/>
      <path class="st1" d="M1082.6,161.2h30.1l2.1-2.1v-31.4h15.4v81h-15.4v-34.2l-2.1-2.1h-30.1v34.2l-2.3,1.9c-2.7.3-5.6.5-8.3.3s-4.7.3-6.2-2.2v-76.8l2.3-1.9c2.7-.3,5.6-.5,8.3-.3s4.7-.3,6.2,2.2v31.4Z"/>
      <path class="st1" d="M596,126.6c50.3-1.9,51.7,82.9,2.3,83.5-49.1.5-49.6-81.7-2.3-83.5ZM596,137.7c-23.7,2-22.6,51.3-7.7,58.6,15,7.3,27-2.6,28.9-17.9,1.9-15.3.4-42.6-21.2-40.7Z"/>
      <path class="st1" d="M506.6,176.5v30l-2.3,1.9c-1.3.4-2.6.2-3.9.3-3.5.3-8.4.7-10.6-2.2v-76.8l2.1-2.1h36.4c.8,0,9.4,2.5,10.9,3.1,18,7.1,20,32.5,3.4,41.9-1.5.9-9,3.9-10.1,3.9h-25.9ZM506.6,165.3h20.3c2.2,0,9-5.5,9.9-8.3,6.1-19.1-17.5-19.1-30.2-18.2v26.5Z"/>
      <path class="st1" d="M1200.4,127.6c-.4,4.2,1.6,9.6-2.1,12.6h-37.1v22.3h28v11.2h-28v23.7h40.6v11.2h-55.4l-2.1-2.1v-76.8l2.1-2.1h54Z"/>
      <path class="st1" d="M962.1,127.6c-.4,4.2,1.6,9.6-2.1,12.6h-37.1v22.3h28v11.2h-28v23.7h40.6v11.2h-55.4l-2.1-2.1v-76.8l2.1-2.1h54Z"/>
      <path class="st1" d="M405.7,127.6c-.4,4.2,1.6,9.6-2.1,12.6h-37.1v22.3h28v11.2h-28v23.7h40.6v11.2h-55.4l-2.1-2.1v-76.8l2.1-2.1h54Z"/>
      <path class="st1" d="M1370,127.6c-.4,4.2,1.6,9.6-2.1,12.6h-37.1v22.3h28v11.2h-28v23.7h40.6v11.2h-55.4l-2.1-2.1v-76.8l2.1-2.1h54Z"/>
      <path class="st1" d="M753,126.6c9.8-.4,25.2,2.9,29.6,12.7l-7.8,6.2c-4.3-1.3-6.9-4.9-11.4-6.4-9.3-3.1-27.8.9-22,13.6,5.1,11.1,42.1,4.8,44.2,30,2.7,33.2-49.9,34.9-63.1,11.3l9.4-6.1c2.8-.3,6.8,6.4,9.8,8,9.3,5.2,31.3,4.5,28.5-10.2s-40.8-8.1-44.5-31.1c-2.7-17,12-27.3,27.5-27.9Z"/>
      <path class="st1" d="M444.7,126.6c9.8-.4,25.2,2.9,29.6,12.7l-7.8,6.2c-4.3-1.3-6.9-4.9-11.4-6.4-9.3-3.1-27.8.9-22,13.6,5.1,11.1,42.1,4.8,44.2,30s-49.9,34.9-63.1,11.3l9.4-6.1c2.8-.3,6.8,6.4,9.8,8,9.3,5.2,31.3,4.5,28.5-10.2s-40.8-8.1-44.5-31.1c-2.7-17,12-27.3,27.5-27.9Z"/>
      <path class="st1" d="M862.6,189.1l19.8-61.2c2.6-.4,13.5-1.1,13.8,1.9l-27.8,78.1c-15.9,3.1-15.8,1.3-20.8-11.4-8.9-22.3-15.2-46-22.8-68.7l16.1,1.4,21.7,60Z"/>
      <polygon class="st1" points="1054.6 127.6 1054.6 138.8 1032.9 138.8 1030.8 140.9 1030.8 208.6 1015.4 208.6 1015.4 140.9 1013.3 138.8 990.1 138.8 990.1 127.6 1054.6 127.6"/>
      <path class="st1" d="M796.7,129.7l2.3-1.9c1.3-.4,2.6-.2,3.9-.3,3.5-.3,8.4-.7,10.6,2.2v76.8l-2.3,1.9c-1.3.4-2.6.2-3.9.3-3.5.3-8.4.7-10.6-2.2v-76.8Z"/>
      <path class="st0" d="M362.2,32.7v19.5c14.6-7,25-2,25.3,14.6.4,19.2-15.5,25.2-31.7,19l-.5-48c-.6-2.5-7.2-.6-5.7-5.1h12.6ZM362.2,83c16.4,3.3,21.2-8.4,17.9-22.7s-17.9-5.4-17.9-1.7v24.4Z"/>
      <path class="st0" d="M325.8,49.5l-4.3,6.2,7.2,23.1c3.6.6,2.2-.3,2.9-2,1.2-2.6,7.6-22.2,6.8-23.1l-5.5-2.2c0-3.3,14-1.8,16.8-2.1v4.1c-1.4.2-3.1,0-4.1.8-8.5,6-10,56.6-33.7,49.5v-4.2c6.8,2.5,14.6-6.2,14.8-11.9s-10.2-28.7-11.7-31-3.7-3.3-5.9-5.3c-.2-3.3,14.1-1.9,16.8-2.1Z"/>
      <path class="st0" d="M402.2,69c-4.3,1.1,1.2,11.7,4.9,13.2,2.8,1.2,6.1,1.1,9,.7s11.1-5.4,9.2-.6c-7.7,8.4-25.7,8.4-29.7-3.8-5.3-16.3,3.7-34.2,22.8-28.3,7.7,2.4,10.3,18.9,6.2,18.9h-22.4ZM401.5,64.8c4-.7,18.3,2.4,18-3.2-.6-12.4-20.8-9.4-18,3.2Z"/>
      <path class="st0" d="M306,51.1l.2,9.6h-4.2s-1.3-6.4-1.3-6.4c-23-7.2-25.1,32-2.3,28.6,1.3-.2,11.1-5.4,9.2-.6-38.1,25.9-44.9-45.8-1.6-31.2Z"/>
      <path class="st0" d="M430.9,87.2c-1.2-4.4,4.6-2.7,6.3-5.6s1.3-23.5.5-25.7c-.9-2.7-5.3-1.9-6.8-4.4,0-2.3,9-2.9,10.9-1.8s1.1,3.5,2.4,3.9,10.9-7.6,16.1-4.2v9.8s-4.1,0-4.1,0l-2.3-5.5c-1-.2-6.5,2.6-7.6,3.5-3.7,3-4.1,19.3-2.7,23.5,1.4,4,9.3,1.3,8.2,6.5h-21Z"/>
    </g>
  </g>
</svg>