<svg width="87" height="84" viewBox="0 0 87 84" fill="none" xmlns="http://www.w3.org/2000/svg">
<path d="M78.2223 61.6592H78.4223V61.4592V34.6984C78.4223 30.1526 77.4537 25.7823 75.5459 21.7089L75.4605 21.5265L75.2788 21.6131L72.8769 22.7576L72.6974 22.843L72.7818 23.023C74.4971 26.6825 75.366 30.6097 75.366 34.6984V61.4592V61.6592H75.566H78.2223Z" fill="#7C29C4" stroke="#7C29C4" stroke-width="0.4"/>
<path d="M38.0021 83.4808H38.2021V83.2808V80.6023V80.4023H38.0021C28.9904 80.4023 22.3317 78.8385 17.93 75.6984C13.5414 72.5676 11.368 67.8489 11.368 61.4592V34.6984C11.368 30.5532 12.2606 26.5768 14.0208 22.8767L14.1061 22.6973L13.9273 22.6108L11.5326 21.4523L11.3514 21.3646L11.265 21.5464C9.305 25.665 8.31172 30.0906 8.31172 34.6984V61.4592C8.31172 68.7497 10.8128 74.2705 15.7997 77.9607C20.7756 81.6427 28.1984 83.4808 38.0021 83.4808Z" fill="#7C29C4" stroke="#7C29C4" stroke-width="0.4"/>
<path d="M35.6922 83.4969H42.0267C44.4144 83.4969 46.3512 81.5269 46.3512 79.111C46.3512 76.6951 44.4144 74.725 42.0267 74.725H35.6922C33.304 74.725 31.3664 76.695 31.3664 79.111C31.3664 81.527 33.304 83.4969 35.6922 83.4969ZM34.4227 79.111C34.4227 78.3856 34.9973 77.8036 35.6922 77.8036H42.0267C42.7208 77.8036 43.295 78.3854 43.295 79.111C43.295 79.8365 42.7208 80.4183 42.0267 80.4183H35.6922C34.9973 80.4183 34.4227 79.8364 34.4227 79.111Z" fill="#7C29C4" stroke="#7C29C4" stroke-width="0.4"/>
<path d="M68.4366 22.5818L68.4365 22.5815C64.2232 15.4833 56.8577 11.25 48.7304 11.25H38.0012C29.8772 11.25 22.511 15.4833 18.2957 22.5795C17.371 24.1388 15.6811 25.1089 13.8837 25.1089C12.944 25.1089 12.0212 24.8467 11.2155 24.3499C8.7932 22.8595 8.01553 19.6454 9.47708 17.1855M68.4366 22.5818L75.5169 24.3511C77.9403 22.8601 78.7187 19.6461 77.2572 17.1862C71.1649 6.9273 60.5003 0.8 48.7311 0.8H38.0018C26.2326 0.8 15.5687 6.92726 9.47708 17.1855M68.4366 22.5818C69.3786 24.1628 71.0285 25.1095 72.8512 25.1095C73.7922 25.1095 74.7144 24.8467 75.5167 24.3512L68.4366 22.5818ZM9.47708 17.1855L9.64902 17.2877L9.47708 17.1855ZM15.6728 20.9992L15.6727 20.9993C15.289 21.6468 14.6206 22.0303 13.8831 22.0303C13.5078 22.0303 13.1362 21.9244 12.8092 21.7232C11.8155 21.1112 11.494 19.7847 12.0994 18.7653C17.6361 9.44181 27.3185 3.8779 38.0012 3.8779H48.7304C59.4131 3.8779 69.0968 9.44182 74.6342 18.7659L74.8062 18.6638L74.6342 18.766C75.2394 19.7845 74.9182 21.111 73.9211 21.7245L73.9209 21.7246C73.5961 21.925 73.2267 22.0303 72.8505 22.0303C72.1131 22.0303 71.4438 21.6462 71.058 20.9989C66.2911 12.968 57.9436 8.17141 48.7304 8.17141H38.0012C28.7905 8.17141 20.4429 12.9682 15.6728 20.9992Z" fill="#7C29C4" stroke="#7C29C4" stroke-width="0.4"/>
<path d="M11.3408 67.5857H11.5408V67.3857V64.7065V64.5065H11.3408C7.2175 64.5065 3.85625 61.0848 3.85625 56.871V45.5119C3.85625 41.2988 7.21749 37.8771 11.3408 37.8771H11.5408V37.6771V34.9985V34.7985H11.3408C5.52491 34.7985 0.8 39.6075 0.8 45.5119V56.871C0.8 62.7761 5.52488 67.5857 11.3408 67.5857Z" fill="#7C29C4" stroke="#7C29C4" stroke-width="0.4"/>
<path d="M13.0835 69.9592H16.4669C18.9827 69.9592 21.0245 67.8826 21.0245 65.3355V37.2374C21.0245 34.6902 18.9827 32.6137 16.4669 32.6137H13.0835C10.5676 32.6137 8.52656 34.6903 8.52656 37.2374V65.3355C8.52656 67.8819 10.5676 69.9592 13.0835 69.9592ZM11.5828 37.2374C11.5828 36.3807 12.2611 35.6923 13.0835 35.6923H16.4669C17.29 35.6923 17.9682 36.3807 17.9682 37.2374V65.3355C17.9682 66.1922 17.29 66.8806 16.4669 66.8806H13.0835C12.261 66.8806 11.5828 66.1928 11.5828 65.3355V37.2374Z" fill="#7C29C4" stroke="#7C29C4" stroke-width="0.4"/>
<path d="M75.4602 67.5777V67.7777H75.6602C81.4754 67.7777 86.1996 62.9673 86.1996 57.061V45.7018C86.1996 39.7955 81.4754 34.9858 75.6602 34.9858H75.4602V35.1858V37.8644V38.0644H75.6602C79.7827 38.0644 83.1434 41.4867 83.1434 45.7018V57.061C83.1434 61.2762 79.7827 64.6991 75.6602 64.6991H75.4602V64.8991V67.5777Z" fill="#7C29C4" stroke="#7C29C4" stroke-width="0.4"/>
<path d="M70.536 69.9602H73.92C76.4353 69.9602 78.4756 67.8836 78.4763 65.3366V37.2377C78.4763 34.6913 76.4352 32.6154 73.92 32.6154H70.536C68.0195 32.6154 65.9777 34.6912 65.9777 37.2377V65.3366C65.9777 67.883 68.0201 69.9602 70.536 69.9602ZM69.034 37.2377C69.034 36.382 69.7126 35.694 70.536 35.694H73.92C74.7425 35.694 75.42 36.3818 75.42 37.2377V65.3366C75.42 66.1933 74.7417 66.8816 73.92 66.8816H70.536C69.7121 66.8816 69.034 66.1938 69.034 65.3366V37.2377Z" fill="#7C29C4" stroke="#7C29C4" stroke-width="0.4"/>
</svg>
