<svg width="77" height="77" viewBox="0 0 77 77" fill="none" xmlns="http://www.w3.org/2000/svg">
<g clip-path="url(#clip0_2487_61)">
<path d="M70.9668 27.2535C66.6322 11.1424 53.4697 0 38.5 0C23.5756 0 10.3633 11.1605 6.03318 27.2535C2.64971 27.6249 0 30.4784 0 33.9706V52.0882C0 54.9191 1.73024 57.3424 4.18518 58.3615C5.06388 66.2744 11.7176 72.4706 19.8615 72.4706H32.1226C33.0602 75.1022 35.5514 77 38.5 77H52.0882C55.8341 77 58.8824 73.9517 58.8824 70.2059C58.8824 66.4601 55.8341 63.4118 52.0882 63.4118H38.5C35.5514 63.4118 33.0602 65.3096 32.1226 67.9412H19.8615C14.3899 67.9412 9.81977 64.0459 8.76894 58.8824H13.5882V54.3529H18.1176V31.7059H13.5882V27.1765H10.8434C14.9788 13.7649 26.026 4.52941 38.5 4.52941C51.0102 4.52941 62.0212 13.7558 66.1566 27.1765H63.4118V31.7059H58.8824V54.3529H63.4118V58.8824H70.2331C73.9653 58.8824 77 55.8341 77 52.0882V33.9706C77 30.4784 74.3503 27.6249 70.9668 27.2535ZM38.5 67.9412H52.0882C53.3338 67.9412 54.3529 68.9558 54.3529 70.2059C54.3529 71.456 53.3338 72.4706 52.0882 72.4706H38.5C37.2544 72.4706 36.2353 71.456 36.2353 70.2059C36.2353 68.9558 37.2544 67.9412 38.5 67.9412ZM9.05882 54.3529H6.76694C5.53494 54.3529 4.52941 53.3384 4.52941 52.0882V33.9706C4.52941 32.7205 5.53494 31.7059 6.76694 31.7059H9.05882V54.3529ZM72.4706 52.0882C72.4706 53.3384 71.4651 54.3529 70.2331 54.3529H67.9412V31.7059H70.2331C71.4651 31.7059 72.4706 32.7205 72.4706 33.9706V52.0882Z" fill="#7C29C4"/>
</g>
<defs>
<clipPath id="clip0_2487_61">
<rect width="77" height="77" fill="white"/>
</clipPath>
</defs>
</svg>
