<svg width="28" height="28" viewBox="0 0 28 28" fill="none" xmlns="http://www.w3.org/2000/svg">
<mask id="mask0_3902_1936" style="mask-type:alpha" maskUnits="userSpaceOnUse" x="0" y="0" width="28" height="28">
<rect width="28" height="28" fill="#D9D9D9"/>
</mask>
<g mask="url(#mask0_3902_1936)">
<path d="M22.3849 14.2914H4.72565C4.55961 14.2914 4.41117 14.2259 4.28031 14.0951C4.14942 13.9642 4.08398 13.8157 4.08398 13.6497C4.08398 13.4837 4.14942 13.3352 4.28031 13.2044C4.41117 13.0735 4.55961 13.008 4.72565 13.008H22.3849L19.5962 10.2193C19.4675 10.0906 19.3995 9.95189 19.392 9.80306C19.3845 9.65423 19.4548 9.50579 19.6029 9.35772C19.7465 9.21412 19.8987 9.1326 20.0595 9.11315C20.2203 9.09371 20.3724 9.16551 20.516 9.32855L24.1417 12.9318C24.2434 13.0335 24.3208 13.1471 24.3739 13.2728C24.427 13.3984 24.461 13.5241 24.476 13.6497C24.476 13.7754 24.4457 13.901 24.3851 14.0266C24.3245 14.1523 24.2434 14.266 24.1417 14.3676L20.516 17.9933C20.4024 18.107 20.2663 18.1675 20.1077 18.175C19.9492 18.1825 19.7884 18.1047 19.6253 17.9417C19.4967 17.7936 19.4324 17.6403 19.4324 17.4818C19.4324 17.3232 19.5042 17.1721 19.6477 17.0286L22.3849 14.2914Z" fill="#9CA3AF"/>
</g>
</svg>
