<?xml version="1.0" encoding="utf-8"?> <!-- Generated by Layerhero SVG Exporter: http://www.layerhero.com/photoshop-svg-exporter --><!DOCTYPE svg PUBLIC "-//W3C//DTD SVG 1.1//EN" "http://www.w3.org/Graphics/SVG/1.1/DTD/svg11.dtd"><svg version="1.1" baseProfile="full" xmlns="http://www.w3.org/2000/svg" xmlns:xlink="http://www.w3.org/1999/xlink" xmlns:ev="http://www.w3.org/2001/xml-events" width="12" height="14" viewBox="0 0 12 14"><g transform="scale(NaN)" ><path fill-rule="evenodd"  fill-opacity="0.102" fill="rgb( 0, 0, 0 )" d="M4.000,-0.000 C4.000,-0.000 12.000,8.000 12.000,8.000 C12.000,8.000 12.000,11.000 12.000,11.000 C12.000,11.000 1.000,-0.000 1.000,-0.000 C1.000,-0.000 4.000,-0.000 4.000,-0.000 ZM10.000,-0.000 C10.000,-0.000 12.000,2.000 12.000,2.000 C12.000,2.000 12.000,5.000 12.000,5.000 C12.000,5.000 7.000,-0.000 7.000,-0.000 C7.000,-0.000 10.000,-0.000 10.000,-0.000 ZM9.000,14.000 C9.000,14.000 -0.000,5.000 -0.000,5.000 C-0.000,5.000 -0.000,2.000 -0.000,2.000 C-0.000,2.000 12.000,14.000 12.000,14.000 C12.000,14.000 9.000,14.000 9.000,14.000 ZM3.000,14.000 C3.000,14.000 -0.000,11.000 -0.000,11.000 C-0.000,11.000 -0.000,8.000 -0.000,8.000 C-0.000,8.000 6.000,14.000 6.000,14.000 C6.000,14.000 3.000,14.000 3.000,14.000 Z"/></g></svg>